<?xml version="1.0" encoding="UTF-8" standalone="no"?>
<!-- Created with Inkscape (http://www.inkscape.org/) -->

<svg
   width="802.16052"
   height="1165.8292"
   viewBox="0 0 212.23832 308.45899"
   version="1.1"
   id="svg5"
   inkscape:version="1.2.1 (9c6d41e410, 2022-07-14)"
   sodipodi:docname="cartas.svg"
   inkscape:export-filename="cartacinco.svg"
   inkscape:export-xdpi="96"
   inkscape:export-ydpi="96"
   xml:space="preserve"
   xmlns:inkscape="http://www.inkscape.org/namespaces/inkscape"
   xmlns:sodipodi="http://sodipodi.sourceforge.net/DTD/sodipodi-0.dtd"
   xmlns="http://www.w3.org/2000/svg"
   xmlns:svg="http://www.w3.org/2000/svg"><sodipodi:namedview
     id="namedview7"
     pagecolor="#ffffff"
     bordercolor="#000000"
     borderopacity="0.25"
     inkscape:showpageshadow="2"
     inkscape:pageopacity="0.0"
     inkscape:pagecheckerboard="0"
     inkscape:deskcolor="#d1d1d1"
     inkscape:document-units="mm"
     showgrid="false"
     inkscape:zoom="0.093205495"
     inkscape:cx="5589.7992"
     inkscape:cy="-311.14045"
     inkscape:window-width="1920"
     inkscape:window-height="1017"
     inkscape:window-x="-8"
     inkscape:window-y="-8"
     inkscape:window-maximized="1"
     inkscape:current-layer="layer1"
     showguides="false"
     inkscape:lockguides="false" /><defs
     id="defs2" /><g
     inkscape:groupmode="layer"
     id="layer2"
     inkscape:label="Camada 2"
     transform="translate(-1665.2773,-372.3457)"><g
       id="rect11276"><path
         style="color:#000000;fill:#ffffff;stroke-width:0.265;-inkscape-stroke:none"
         d="m 1676.5269,372.47772 h 189.7387 c 6.1591,0 11.1175,5.61715 11.1175,12.5945 v 283.00556 c 0,6.97735 -4.9584,12.59449 -11.1175,12.59449 h -189.7387 c -6.1591,0 -11.1175,-5.61714 -11.1175,-12.59449 V 385.07222 c 0,-6.97735 4.9584,-12.5945 11.1175,-12.5945 z"
         id="path11846" /><path
         style="color:#000000;fill:#000000;-inkscape-stroke:none"
         d="m 1676.5273,372.3457 c -6.2396,0 -11.25,5.68645 -11.25,12.72657 v 283.00585 c 0,7.04012 5.0104,12.72657 11.25,12.72657 h 189.7383 c 6.2397,0 11.25,-5.68645 11.25,-12.72657 V 385.07227 c 0,-7.04012 -5.0103,-12.72657 -11.25,-12.72657 z m 0,0.26367 h 189.7383 c 6.0786,0 10.9844,5.54833 10.9844,12.4629 v 283.00585 c 0,6.91457 -4.9058,12.46094 -10.9844,12.46094 h -189.7383 c -6.0785,0 -10.9863,-5.54637 -10.9863,-12.46094 V 385.07227 c 0,-6.91457 4.9078,-12.4629 10.9863,-12.4629 z"
         id="path11848" /></g><path
       style="color:#000000;fill:#003399;-inkscape-stroke:none"
       d="m 1703.3848,397.65234 c -1.4026,0 -4.5271,0.69248 -7.4024,2.81836 -2.8753,2.12588 -5.4355,5.72834 -5.4355,11.41407 v 232.9414 c 0,5.88138 3.8179,10.66602 8.6308,10.66602 h 140.3106 c 7.2095,0 12.7324,-7.14983 12.7324,-14.26758 V 408.32227 c 0,-5.8812 -3.8138,-10.66993 -8.6269,-10.66993 z m 0,0.79883 h 140.209 c 4.2778,0 7.8281,4.33386 7.8281,9.8711 v 232.90234 c 0,6.70172 -5.2587,13.46875 -11.9336,13.46875 h -140.3106 c -4.2781,0 -7.832,-4.3301 -7.832,-9.86719 v -232.9414 c 0,-5.44816 2.3992,-8.76478 5.1133,-10.77149 2.7141,-2.00671 5.8088,-2.66211 6.9258,-2.66211 z"
       id="path11278" /></g><g
     inkscape:label="Camada 1"
     inkscape:groupmode="layer"
     id="layer1"
     style="display:inline"
     transform="translate(-1665.2773,-372.3457)"><ellipse
       style="fill:#003399;fill-opacity:1;stroke:none;stroke-width:0.264999;stroke-dasharray:none;stroke-opacity:1"
       id="ellipse11472"
       cx="1690.9595"
       cy="398.09055"
       rx="15.193922"
       ry="15.187474" /><ellipse
       style="fill:#003399;fill-opacity:1;stroke:none;stroke-width:0.264999;stroke-dasharray:none;stroke-opacity:1"
       id="ellipse11474"
       cx="-1851.8329"
       cy="-655.05939"
       transform="scale(-1)"
       rx="15.193922"
       ry="15.187474" /><g
       id="g11488"
       transform="matrix(0.86000398,0,0,0.86000398,245.64637,765.27049)"
       style="stroke-width:1.16279"><g
         transform="matrix(0.01256064,0,0,-0.01256064,1711.0113,-205.09186)"
         fill="#000000"
         stroke="none"
         id="g11480"
         style="fill:#003399;fill-opacity:1;stroke-width:3.2658"><path
           d="M 4395,7473 C 3315,7402 2386,7063 1890,6559 1546,6210 1446,5797 1610,5411 l 32,-75 -12,-105 c -18,-160 -24,-631 -11,-811 50,-659 226,-1270 516,-1791 400,-720 1006,-1256 1684,-1490 353,-122 723,-170 1071,-139 583,53 1125,284 1613,688 216,180 484,476 648,715 l 60,88 42,-33 c 75,-57 217,-201 266,-268 67,-91 97,-145 131,-238 C 7796,1552 7587,1147 7065,819 6507,468 5657,251 4723,221 3939,196 3196,296 2574,511 1903,743 1468,1074 1324,1463 l -34,92 6,-55 C 1356,930 2076,418 3171,165 3606,64 4029,14 4530,3 c 1486,-31 2839,400 3332,1061 71,96 131,215 159,322 28,103 30,268 5,369 -26,105 -114,278 -189,370 -112,140 -298,298 -468,400 -109,65 -103,53 -59,121 l 39,61 133,48 c 883,315 1200,603 1268,1153 48,385 -178,702 -693,972 l -117,62 -1,131 c -1,73 -4,175 -8,227 -5,88 -4,101 22,175 130,370 18,762 -314,1094 -495,495 -1393,825 -2454,901 -127,9 -668,11 -790,3 z m 720,-223 c 704,-41 1290,-180 1780,-419 607,-297 918,-690 874,-1102 -25,-233 -192,-504 -518,-842 -250,-258 -383,-367 -549,-451 -40,-20 -72,-38 -72,-41 0,-10 245,92 373,156 329,166 606,380 768,594 23,31 44,54 46,51 6,-5 -15,-228 -33,-356 C 7580,3394 6626,2197 5415,1865 c -438,-120 -913,-127 -1340,-19 -652,164 -1223,570 -1662,1182 -306,427 -538,1009 -627,1574 -31,198 -62,578 -46,578 3,0 18,-19 35,-43 44,-62 159,-180 245,-251 516,-430 1310,-703 2285,-787 180,-16 750,-16 925,-1 120,11 472,52 477,56 1,0 -193,1 -430,1 -480,0 -422,-5 -972,85 -337,56 -515,97 -744,171 -738,241 -1391,646 -1638,1016 -156,233 -171,448 -49,708 282,599 1339,1053 2606,1118 141,8 482,6 635,-3 z M 8132,4761 c 204,-164 333,-343 394,-548 35,-118 44,-316 19,-413 -69,-266 -333,-507 -757,-691 -113,-50 -278,-112 -283,-107 -1,1 19,52 46,113 l 48,110 103,41 c 302,119 484,263 581,459 49,98 67,172 73,300 15,277 -85,441 -360,591 l -69,37 7,90 c 3,50 6,105 6,124 v 34 l 59,-40 c 33,-23 92,-67 133,-100 z m -161,-183 c 52,-42 138,-148 177,-218 50,-91 76,-192 76,-295 -2,-252 -137,-433 -429,-571 -51,-24 -97,-44 -102,-44 -6,0 1,33 14,73 96,291 175,657 204,960 7,70 15,127 17,127 2,0 21,-15 43,-32 z"
           id="path11476"
           style="fill:#003399;fill-opacity:1;stroke-width:3.2658" /><path
           d="m 4900,7109 c -124,-25 -161,-28 -555,-44 -528,-21 -840,-68 -1142,-171 -147,-50 -350,-143 -435,-200 -27,-19 -52,-34 -55,-34 -5,0 -176,-114 -201,-134 -7,-6 -21,-18 -30,-27 -9,-8 -56,-47 -103,-86 -203,-168 -323,-342 -356,-515 -27,-148 1,-272 97,-416 142,-215 452,-432 905,-637 33,-15 88,-40 121,-56 34,-16 65,-29 70,-29 5,0 47,-18 94,-39 47,-21 103,-46 125,-54 22,-8 74,-28 115,-45 76,-30 106,-41 115,-42 3,0 18,-6 34,-14 37,-20 270,-99 396,-135 300,-87 595,-111 931,-75 134,13 329,42 409,59 17,3 48,10 70,15 22,4 87,18 145,30 58,12 137,30 175,40 39,10 86,22 105,25 39,8 170,45 270,77 154,50 211,72 337,129 24,10 45,19 48,19 15,0 265,127 295,151 19,14 68,47 109,72 133,83 376,314 424,404 7,12 31,53 55,91 23,38 45,78 47,88 3,10 16,60 30,109 51,191 19,362 -106,547 -44,65 -234,258 -255,258 -6,0 -17,7 -25,16 -13,16 -233,164 -244,164 -3,0 -22,11 -43,23 -79,51 -321,167 -345,167 -7,0 -17,4 -22,9 -17,17 -261,94 -400,127 -16,4 -34,8 -40,10 -58,13 -208,39 -330,55 -82,11 -188,28 -235,39 -47,10 -110,21 -140,24 -104,11 -415,14 -460,5 z"
           id="path11478"
           style="fill:#003399;fill-opacity:1;stroke-width:3.2658" /></g><path
         d="m 1755.4052,-341.44244 c 0,0.0169 0.2539,0.15232 0.5586,0.30464 1.337,0.66005 2.344,2.25942 2.4625,3.93493 0.1184,1.71784 -0.5839,3.67261 -2.2256,6.21974 -0.4062,0.6262 -1.0578,1.6332 -1.447,2.24249 -0.7786,1.20163 -1.6925,2.99562 -1.9633,3.83339 -0.4147,1.29471 -0.55,2.20017 -0.5585,3.61336 0,2.01401 0.3131,3.38489 1.1593,5.06887 0.7363,1.47243 1.2186,2.1071 3.3765,4.40036 0.5923,0.62621 1.2439,1.37934 1.4639,1.67552 1.9802,2.78407 1.9209,6.43129 -0.1523,9.31691 -0.4062,0.5585 -0.4316,0.63466 -0.2369,0.53311 0.6769,-0.37234 1.5993,-1.23548 2.1832,-2.05632 1.337,-1.86168 1.8448,-4.62883 1.2609,-6.87132 -0.3977,-1.54012 -0.9731,-2.50482 -3.3087,-5.56814 -1.117,-1.46396 -1.5825,-2.21711 -1.9295,-3.09718 -0.5245,-1.3201 -0.7615,-3.27488 -0.5669,-4.63729 0.22,-1.48089 0.7193,-2.6656 2.9533,-6.93056 1.354,-2.5979 1.8194,-4.15495 1.8194,-6.0928 -0.01,-1.37088 -0.1693,-2.09863 -0.7193,-3.15641 -0.4485,-0.86314 -1.3878,-1.84476 -2.1578,-2.24248 -0.584,-0.30464 -1.9718,-0.65159 -1.9718,-0.49082 z"
         id="path11482"
         style="fill:#003399;fill-opacity:1;stroke:none;stroke-width:0.0410204" /><path
         d="m 1765.5484,-349.95053 c 0,0.0202 0.3041,0.18248 0.6692,0.36496 1.6017,0.79073 2.808,2.70674 2.95,4.71398 0.1418,2.05794 -0.6995,4.39972 -2.6662,7.45114 -0.4867,0.75017 -1.2673,1.95654 -1.7335,2.68646 -0.9328,1.43953 -2.0276,3.5887 -2.352,4.59234 -0.4968,1.55104 -0.6589,2.63576 -0.6691,4.32874 0,2.41275 0.3751,4.05504 1.3888,6.07242 0.8821,1.76395 1.4599,2.52427 4.045,5.27156 0.7096,0.75018 1.4902,1.65242 1.7537,2.00724 2.3723,3.33527 2.3012,7.70457 -0.1824,11.1615 -0.4866,0.66907 -0.5171,0.76031 -0.2838,0.63865 0.8109,-0.44605 1.9159,-1.48008 2.6154,-2.46343 1.6017,-2.23026 2.2101,-5.54526 1.5106,-8.23172 -0.4765,-1.84504 -1.1658,-3.00074 -3.9638,-6.67054 -1.3382,-1.7538 -1.8958,-2.65606 -2.3115,-3.71037 -0.6284,-1.58146 -0.9123,-3.92325 -0.6791,-5.55539 0.2635,-1.77408 0.8617,-3.19335 3.538,-8.30269 1.622,-3.11224 2.1796,-4.97756 2.1796,-7.29907 -0.012,-1.64229 -0.2029,-2.51413 -0.8617,-3.78133 -0.5373,-1.03403 -1.6626,-2.20999 -2.5851,-2.68645 -0.6996,-0.36495 -2.3621,-0.7806 -2.3621,-0.588 z"
         id="path11484"
         style="fill:#003399;fill-opacity:1;stroke:none;stroke-width:0.0410204" /><path
         d="m 1778.4697,-341.44244 c 0,0.0169 0.2539,0.15232 0.5586,0.30464 1.337,0.66005 2.344,2.25942 2.4625,3.93493 0.1184,1.71784 -0.5839,3.67261 -2.2256,6.21974 -0.4062,0.6262 -1.0578,1.6332 -1.447,2.24249 -0.7786,1.20163 -1.6925,2.99562 -1.9633,3.83339 -0.4147,1.29471 -0.55,2.20017 -0.5585,3.61336 0,2.01401 0.3131,3.38489 1.1593,5.06887 0.7363,1.47243 1.2186,2.1071 3.3765,4.40036 0.5923,0.62621 1.2439,1.37934 1.4639,1.67552 1.9802,2.78407 1.9209,6.43129 -0.1523,9.31691 -0.4062,0.5585 -0.4316,0.63466 -0.2369,0.53311 0.6769,-0.37234 1.5993,-1.23548 2.1832,-2.05632 1.337,-1.86168 1.8448,-4.62883 1.2609,-6.87132 -0.3977,-1.54012 -0.9731,-2.50482 -3.3087,-5.56814 -1.117,-1.46396 -1.5825,-2.21711 -1.9295,-3.09718 -0.5245,-1.3201 -0.7615,-3.27488 -0.5669,-4.63729 0.22,-1.48089 0.7193,-2.6656 2.9533,-6.93056 1.354,-2.5979 1.8194,-4.15495 1.8194,-6.0928 -0.01,-1.37088 -0.1693,-2.09863 -0.7193,-3.15641 -0.4485,-0.86314 -1.3878,-1.84476 -2.1578,-2.24248 -0.584,-0.30464 -1.9718,-0.65159 -1.9718,-0.49082 z"
         id="path11486"
         style="fill:#003399;fill-opacity:1;stroke:none;stroke-width:0.0410204" /></g><g
       id="g11502"
       transform="matrix(0.17182849,0,0,0.17672655,1386.1176,446.61264)"
       style="fill:#ffffff;stroke-width:5.73856"><g
         transform="matrix(0.01256064,0,0,-0.01256064,1711.0113,-205.09186)"
         fill="#000000"
         stroke="none"
         id="g11494"
         style="fill:#ffffff;fill-opacity:1;stroke-width:16.1173"><path
           d="M 4395,7473 C 3315,7402 2386,7063 1890,6559 1546,6210 1446,5797 1610,5411 l 32,-75 -12,-105 c -18,-160 -24,-631 -11,-811 50,-659 226,-1270 516,-1791 400,-720 1006,-1256 1684,-1490 353,-122 723,-170 1071,-139 583,53 1125,284 1613,688 216,180 484,476 648,715 l 60,88 42,-33 c 75,-57 217,-201 266,-268 67,-91 97,-145 131,-238 C 7796,1552 7587,1147 7065,819 6507,468 5657,251 4723,221 3939,196 3196,296 2574,511 1903,743 1468,1074 1324,1463 l -34,92 6,-55 C 1356,930 2076,418 3171,165 3606,64 4029,14 4530,3 c 1486,-31 2839,400 3332,1061 71,96 131,215 159,322 28,103 30,268 5,369 -26,105 -114,278 -189,370 -112,140 -298,298 -468,400 -109,65 -103,53 -59,121 l 39,61 133,48 c 883,315 1200,603 1268,1153 48,385 -178,702 -693,972 l -117,62 -1,131 c -1,73 -4,175 -8,227 -5,88 -4,101 22,175 130,370 18,762 -314,1094 -495,495 -1393,825 -2454,901 -127,9 -668,11 -790,3 z m 720,-223 c 704,-41 1290,-180 1780,-419 607,-297 918,-690 874,-1102 -25,-233 -192,-504 -518,-842 -250,-258 -383,-367 -549,-451 -40,-20 -72,-38 -72,-41 0,-10 245,92 373,156 329,166 606,380 768,594 23,31 44,54 46,51 6,-5 -15,-228 -33,-356 C 7580,3394 6626,2197 5415,1865 c -438,-120 -913,-127 -1340,-19 -652,164 -1223,570 -1662,1182 -306,427 -538,1009 -627,1574 -31,198 -62,578 -46,578 3,0 18,-19 35,-43 44,-62 159,-180 245,-251 516,-430 1310,-703 2285,-787 180,-16 750,-16 925,-1 120,11 472,52 477,56 1,0 -193,1 -430,1 -480,0 -422,-5 -972,85 -337,56 -515,97 -744,171 -738,241 -1391,646 -1638,1016 -156,233 -171,448 -49,708 282,599 1339,1053 2606,1118 141,8 482,6 635,-3 z M 8132,4761 c 204,-164 333,-343 394,-548 35,-118 44,-316 19,-413 -69,-266 -333,-507 -757,-691 -113,-50 -278,-112 -283,-107 -1,1 19,52 46,113 l 48,110 103,41 c 302,119 484,263 581,459 49,98 67,172 73,300 15,277 -85,441 -360,591 l -69,37 7,90 c 3,50 6,105 6,124 v 34 l 59,-40 c 33,-23 92,-67 133,-100 z m -161,-183 c 52,-42 138,-148 177,-218 50,-91 76,-192 76,-295 -2,-252 -137,-433 -429,-571 -51,-24 -97,-44 -102,-44 -6,0 1,33 14,73 96,291 175,657 204,960 7,70 15,127 17,127 2,0 21,-15 43,-32 z"
           id="path11490"
           style="fill:#ffffff;fill-opacity:1;stroke-width:16.1173" /><path
           d="m 4900,7109 c -124,-25 -161,-28 -555,-44 -528,-21 -840,-68 -1142,-171 -147,-50 -350,-143 -435,-200 -27,-19 -52,-34 -55,-34 -5,0 -176,-114 -201,-134 -7,-6 -21,-18 -30,-27 -9,-8 -56,-47 -103,-86 -203,-168 -323,-342 -356,-515 -27,-148 1,-272 97,-416 142,-215 452,-432 905,-637 33,-15 88,-40 121,-56 34,-16 65,-29 70,-29 5,0 47,-18 94,-39 47,-21 103,-46 125,-54 22,-8 74,-28 115,-45 76,-30 106,-41 115,-42 3,0 18,-6 34,-14 37,-20 270,-99 396,-135 300,-87 595,-111 931,-75 134,13 329,42 409,59 17,3 48,10 70,15 22,4 87,18 145,30 58,12 137,30 175,40 39,10 86,22 105,25 39,8 170,45 270,77 154,50 211,72 337,129 24,10 45,19 48,19 15,0 265,127 295,151 19,14 68,47 109,72 133,83 376,314 424,404 7,12 31,53 55,91 23,38 45,78 47,88 3,10 16,60 30,109 51,191 19,362 -106,547 -44,65 -234,258 -255,258 -6,0 -17,7 -25,16 -13,16 -233,164 -244,164 -3,0 -22,11 -43,23 -79,51 -321,167 -345,167 -7,0 -17,4 -22,9 -17,17 -261,94 -400,127 -16,4 -34,8 -40,10 -58,13 -208,39 -330,55 -82,11 -188,28 -235,39 -47,10 -110,21 -140,24 -104,11 -415,14 -460,5 z"
           id="path11492"
           style="fill:#ffffff;fill-opacity:1;stroke-width:16.1173" /></g><path
         d="m 1755.4052,-341.44244 c 0,0.0169 0.2539,0.15232 0.5586,0.30464 1.337,0.66005 2.344,2.25942 2.4625,3.93493 0.1184,1.71784 -0.5839,3.67261 -2.2256,6.21974 -0.4062,0.6262 -1.0578,1.6332 -1.447,2.24249 -0.7786,1.20163 -1.6925,2.99562 -1.9633,3.83339 -0.4147,1.29471 -0.55,2.20017 -0.5585,3.61336 0,2.01401 0.3131,3.38489 1.1593,5.06887 0.7363,1.47243 1.2186,2.1071 3.3765,4.40036 0.5923,0.62621 1.2439,1.37934 1.4639,1.67552 1.9802,2.78407 1.9209,6.43129 -0.1523,9.31691 -0.4062,0.5585 -0.4316,0.63466 -0.2369,0.53311 0.6769,-0.37234 1.5993,-1.23548 2.1832,-2.05632 1.337,-1.86168 1.8448,-4.62883 1.2609,-6.87132 -0.3977,-1.54012 -0.9731,-2.50482 -3.3087,-5.56814 -1.117,-1.46396 -1.5825,-2.21711 -1.9295,-3.09718 -0.5245,-1.3201 -0.7615,-3.27488 -0.5669,-4.63729 0.22,-1.48089 0.7193,-2.6656 2.9533,-6.93056 1.354,-2.5979 1.8194,-4.15495 1.8194,-6.0928 -0.01,-1.37088 -0.1693,-2.09863 -0.7193,-3.15641 -0.4485,-0.86314 -1.3878,-1.84476 -2.1578,-2.24248 -0.584,-0.30464 -1.9718,-0.65159 -1.9718,-0.49082 z"
         id="path11496"
         style="fill:#ffffff;fill-opacity:1;stroke:none;stroke-width:0.202443" /><path
         d="m 1765.5484,-349.95053 c 0,0.0202 0.3041,0.18248 0.6692,0.36496 1.6017,0.79073 2.808,2.70674 2.95,4.71398 0.1418,2.05794 -0.6995,4.39972 -2.6662,7.45114 -0.4867,0.75017 -1.2673,1.95654 -1.7335,2.68646 -0.9328,1.43953 -2.0276,3.5887 -2.352,4.59234 -0.4968,1.55104 -0.6589,2.63576 -0.6691,4.32874 0,2.41275 0.3751,4.05504 1.3888,6.07242 0.8821,1.76395 1.4599,2.52427 4.045,5.27156 0.7096,0.75018 1.4902,1.65242 1.7537,2.00724 2.3723,3.33527 2.3012,7.70457 -0.1824,11.1615 -0.4866,0.66907 -0.5171,0.76031 -0.2838,0.63865 0.8109,-0.44605 1.9159,-1.48008 2.6154,-2.46343 1.6017,-2.23026 2.2101,-5.54526 1.5106,-8.23172 -0.4765,-1.84504 -1.1658,-3.00074 -3.9638,-6.67054 -1.3382,-1.7538 -1.8958,-2.65606 -2.3115,-3.71037 -0.6284,-1.58146 -0.9123,-3.92325 -0.6791,-5.55539 0.2635,-1.77408 0.8617,-3.19335 3.538,-8.30269 1.622,-3.11224 2.1796,-4.97756 2.1796,-7.29907 -0.012,-1.64229 -0.2029,-2.51413 -0.8617,-3.78133 -0.5373,-1.03403 -1.6626,-2.20999 -2.5851,-2.68645 -0.6996,-0.36495 -2.3621,-0.7806 -2.3621,-0.588 z"
         id="path11498"
         style="fill:#ffffff;fill-opacity:1;stroke:none;stroke-width:0.202443" /><path
         d="m 1778.4697,-341.44244 c 0,0.0169 0.2539,0.15232 0.5586,0.30464 1.337,0.66005 2.344,2.25942 2.4625,3.93493 0.1184,1.71784 -0.5839,3.67261 -2.2256,6.21974 -0.4062,0.6262 -1.0578,1.6332 -1.447,2.24249 -0.7786,1.20163 -1.6925,2.99562 -1.9633,3.83339 -0.4147,1.29471 -0.55,2.20017 -0.5585,3.61336 0,2.01401 0.3131,3.38489 1.1593,5.06887 0.7363,1.47243 1.2186,2.1071 3.3765,4.40036 0.5923,0.62621 1.2439,1.37934 1.4639,1.67552 1.9802,2.78407 1.9209,6.43129 -0.1523,9.31691 -0.4062,0.5585 -0.4316,0.63466 -0.2369,0.53311 0.6769,-0.37234 1.5993,-1.23548 2.1832,-2.05632 1.337,-1.86168 1.8448,-4.62883 1.2609,-6.87132 -0.3977,-1.54012 -0.9731,-2.50482 -3.3087,-5.56814 -1.117,-1.46396 -1.5825,-2.21711 -1.9295,-3.09718 -0.5245,-1.3201 -0.7615,-3.27488 -0.5669,-4.63729 0.22,-1.48089 0.7193,-2.6656 2.9533,-6.93056 1.354,-2.5979 1.8194,-4.15495 1.8194,-6.0928 -0.01,-1.37088 -0.1693,-2.09863 -0.7193,-3.15641 -0.4485,-0.86314 -1.3878,-1.84476 -2.1578,-2.24248 -0.584,-0.30464 -1.9718,-0.65159 -1.9718,-0.49082 z"
         id="path11500"
         style="fill:#ffffff;fill-opacity:1;stroke:none;stroke-width:0.202443" /></g><g
       id="g11516"
       transform="matrix(0.17182849,0,0,0.17672655,1546.9911,703.58149)"
       style="fill:#ffffff;stroke-width:5.73856"><g
         transform="matrix(0.01256064,0,0,-0.01256064,1711.0113,-205.09186)"
         fill="#000000"
         stroke="none"
         id="g11508"
         style="fill:#ffffff;fill-opacity:1;stroke-width:16.1173"><path
           d="M 4395,7473 C 3315,7402 2386,7063 1890,6559 1546,6210 1446,5797 1610,5411 l 32,-75 -12,-105 c -18,-160 -24,-631 -11,-811 50,-659 226,-1270 516,-1791 400,-720 1006,-1256 1684,-1490 353,-122 723,-170 1071,-139 583,53 1125,284 1613,688 216,180 484,476 648,715 l 60,88 42,-33 c 75,-57 217,-201 266,-268 67,-91 97,-145 131,-238 C 7796,1552 7587,1147 7065,819 6507,468 5657,251 4723,221 3939,196 3196,296 2574,511 1903,743 1468,1074 1324,1463 l -34,92 6,-55 C 1356,930 2076,418 3171,165 3606,64 4029,14 4530,3 c 1486,-31 2839,400 3332,1061 71,96 131,215 159,322 28,103 30,268 5,369 -26,105 -114,278 -189,370 -112,140 -298,298 -468,400 -109,65 -103,53 -59,121 l 39,61 133,48 c 883,315 1200,603 1268,1153 48,385 -178,702 -693,972 l -117,62 -1,131 c -1,73 -4,175 -8,227 -5,88 -4,101 22,175 130,370 18,762 -314,1094 -495,495 -1393,825 -2454,901 -127,9 -668,11 -790,3 z m 720,-223 c 704,-41 1290,-180 1780,-419 607,-297 918,-690 874,-1102 -25,-233 -192,-504 -518,-842 -250,-258 -383,-367 -549,-451 -40,-20 -72,-38 -72,-41 0,-10 245,92 373,156 329,166 606,380 768,594 23,31 44,54 46,51 6,-5 -15,-228 -33,-356 C 7580,3394 6626,2197 5415,1865 c -438,-120 -913,-127 -1340,-19 -652,164 -1223,570 -1662,1182 -306,427 -538,1009 -627,1574 -31,198 -62,578 -46,578 3,0 18,-19 35,-43 44,-62 159,-180 245,-251 516,-430 1310,-703 2285,-787 180,-16 750,-16 925,-1 120,11 472,52 477,56 1,0 -193,1 -430,1 -480,0 -422,-5 -972,85 -337,56 -515,97 -744,171 -738,241 -1391,646 -1638,1016 -156,233 -171,448 -49,708 282,599 1339,1053 2606,1118 141,8 482,6 635,-3 z M 8132,4761 c 204,-164 333,-343 394,-548 35,-118 44,-316 19,-413 -69,-266 -333,-507 -757,-691 -113,-50 -278,-112 -283,-107 -1,1 19,52 46,113 l 48,110 103,41 c 302,119 484,263 581,459 49,98 67,172 73,300 15,277 -85,441 -360,591 l -69,37 7,90 c 3,50 6,105 6,124 v 34 l 59,-40 c 33,-23 92,-67 133,-100 z m -161,-183 c 52,-42 138,-148 177,-218 50,-91 76,-192 76,-295 -2,-252 -137,-433 -429,-571 -51,-24 -97,-44 -102,-44 -6,0 1,33 14,73 96,291 175,657 204,960 7,70 15,127 17,127 2,0 21,-15 43,-32 z"
           id="path11504"
           style="fill:#ffffff;fill-opacity:1;stroke-width:16.1173" /><path
           d="m 4900,7109 c -124,-25 -161,-28 -555,-44 -528,-21 -840,-68 -1142,-171 -147,-50 -350,-143 -435,-200 -27,-19 -52,-34 -55,-34 -5,0 -176,-114 -201,-134 -7,-6 -21,-18 -30,-27 -9,-8 -56,-47 -103,-86 -203,-168 -323,-342 -356,-515 -27,-148 1,-272 97,-416 142,-215 452,-432 905,-637 33,-15 88,-40 121,-56 34,-16 65,-29 70,-29 5,0 47,-18 94,-39 47,-21 103,-46 125,-54 22,-8 74,-28 115,-45 76,-30 106,-41 115,-42 3,0 18,-6 34,-14 37,-20 270,-99 396,-135 300,-87 595,-111 931,-75 134,13 329,42 409,59 17,3 48,10 70,15 22,4 87,18 145,30 58,12 137,30 175,40 39,10 86,22 105,25 39,8 170,45 270,77 154,50 211,72 337,129 24,10 45,19 48,19 15,0 265,127 295,151 19,14 68,47 109,72 133,83 376,314 424,404 7,12 31,53 55,91 23,38 45,78 47,88 3,10 16,60 30,109 51,191 19,362 -106,547 -44,65 -234,258 -255,258 -6,0 -17,7 -25,16 -13,16 -233,164 -244,164 -3,0 -22,11 -43,23 -79,51 -321,167 -345,167 -7,0 -17,4 -22,9 -17,17 -261,94 -400,127 -16,4 -34,8 -40,10 -58,13 -208,39 -330,55 -82,11 -188,28 -235,39 -47,10 -110,21 -140,24 -104,11 -415,14 -460,5 z"
           id="path11506"
           style="fill:#ffffff;fill-opacity:1;stroke-width:16.1173" /></g><path
         d="m 1755.4052,-341.44244 c 0,0.0169 0.2539,0.15232 0.5586,0.30464 1.337,0.66005 2.344,2.25942 2.4625,3.93493 0.1184,1.71784 -0.5839,3.67261 -2.2256,6.21974 -0.4062,0.6262 -1.0578,1.6332 -1.447,2.24249 -0.7786,1.20163 -1.6925,2.99562 -1.9633,3.83339 -0.4147,1.29471 -0.55,2.20017 -0.5585,3.61336 0,2.01401 0.3131,3.38489 1.1593,5.06887 0.7363,1.47243 1.2186,2.1071 3.3765,4.40036 0.5923,0.62621 1.2439,1.37934 1.4639,1.67552 1.9802,2.78407 1.9209,6.43129 -0.1523,9.31691 -0.4062,0.5585 -0.4316,0.63466 -0.2369,0.53311 0.6769,-0.37234 1.5993,-1.23548 2.1832,-2.05632 1.337,-1.86168 1.8448,-4.62883 1.2609,-6.87132 -0.3977,-1.54012 -0.9731,-2.50482 -3.3087,-5.56814 -1.117,-1.46396 -1.5825,-2.21711 -1.9295,-3.09718 -0.5245,-1.3201 -0.7615,-3.27488 -0.5669,-4.63729 0.22,-1.48089 0.7193,-2.6656 2.9533,-6.93056 1.354,-2.5979 1.8194,-4.15495 1.8194,-6.0928 -0.01,-1.37088 -0.1693,-2.09863 -0.7193,-3.15641 -0.4485,-0.86314 -1.3878,-1.84476 -2.1578,-2.24248 -0.584,-0.30464 -1.9718,-0.65159 -1.9718,-0.49082 z"
         id="path11510"
         style="fill:#ffffff;fill-opacity:1;stroke:none;stroke-width:0.202443" /><path
         d="m 1765.5484,-349.95053 c 0,0.0202 0.3041,0.18248 0.6692,0.36496 1.6017,0.79073 2.808,2.70674 2.95,4.71398 0.1418,2.05794 -0.6995,4.39972 -2.6662,7.45114 -0.4867,0.75017 -1.2673,1.95654 -1.7335,2.68646 -0.9328,1.43953 -2.0276,3.5887 -2.352,4.59234 -0.4968,1.55104 -0.6589,2.63576 -0.6691,4.32874 0,2.41275 0.3751,4.05504 1.3888,6.07242 0.8821,1.76395 1.4599,2.52427 4.045,5.27156 0.7096,0.75018 1.4902,1.65242 1.7537,2.00724 2.3723,3.33527 2.3012,7.70457 -0.1824,11.1615 -0.4866,0.66907 -0.5171,0.76031 -0.2838,0.63865 0.8109,-0.44605 1.9159,-1.48008 2.6154,-2.46343 1.6017,-2.23026 2.2101,-5.54526 1.5106,-8.23172 -0.4765,-1.84504 -1.1658,-3.00074 -3.9638,-6.67054 -1.3382,-1.7538 -1.8958,-2.65606 -2.3115,-3.71037 -0.6284,-1.58146 -0.9123,-3.92325 -0.6791,-5.55539 0.2635,-1.77408 0.8617,-3.19335 3.538,-8.30269 1.622,-3.11224 2.1796,-4.97756 2.1796,-7.29907 -0.012,-1.64229 -0.2029,-2.51413 -0.8617,-3.78133 -0.5373,-1.03403 -1.6626,-2.20999 -2.5851,-2.68645 -0.6996,-0.36495 -2.3621,-0.7806 -2.3621,-0.588 z"
         id="path11512"
         style="fill:#ffffff;fill-opacity:1;stroke:none;stroke-width:0.202443" /><path
         d="m 1778.4697,-341.44244 c 0,0.0169 0.2539,0.15232 0.5586,0.30464 1.337,0.66005 2.344,2.25942 2.4625,3.93493 0.1184,1.71784 -0.5839,3.67261 -2.2256,6.21974 -0.4062,0.6262 -1.0578,1.6332 -1.447,2.24249 -0.7786,1.20163 -1.6925,2.99562 -1.9633,3.83339 -0.4147,1.29471 -0.55,2.20017 -0.5585,3.61336 0,2.01401 0.3131,3.38489 1.1593,5.06887 0.7363,1.47243 1.2186,2.1071 3.3765,4.40036 0.5923,0.62621 1.2439,1.37934 1.4639,1.67552 1.9802,2.78407 1.9209,6.43129 -0.1523,9.31691 -0.4062,0.5585 -0.4316,0.63466 -0.2369,0.53311 0.6769,-0.37234 1.5993,-1.23548 2.1832,-2.05632 1.337,-1.86168 1.8448,-4.62883 1.2609,-6.87132 -0.3977,-1.54012 -0.9731,-2.50482 -3.3087,-5.56814 -1.117,-1.46396 -1.5825,-2.21711 -1.9295,-3.09718 -0.5245,-1.3201 -0.7615,-3.27488 -0.5669,-4.63729 0.22,-1.48089 0.7193,-2.6656 2.9533,-6.93056 1.354,-2.5979 1.8194,-4.15495 1.8194,-6.0928 -0.01,-1.37088 -0.1693,-2.09863 -0.7193,-3.15641 -0.4485,-0.86314 -1.3878,-1.84476 -2.1578,-2.24248 -0.584,-0.30464 -1.9718,-0.65159 -1.9718,-0.49082 z"
         id="path11514"
         style="fill:#ffffff;fill-opacity:1;stroke:none;stroke-width:0.202443" /></g></g></svg>
