<?xml version="1.0" encoding="UTF-8" standalone="no"?>
<!-- Created with Inkscape (http://www.inkscape.org/) -->

<svg
   width="802.16016"
   height="1165.8292"
   viewBox="0 0 212.23822 308.45899"
   version="1.1"
   id="svg5"
   inkscape:version="1.2.1 (9c6d41e410, 2022-07-14)"
   sodipodi:docname="cartas.svg"
   inkscape:export-filename="cartacinco.svg"
   inkscape:export-xdpi="96"
   inkscape:export-ydpi="96"
   xml:space="preserve"
   xmlns:inkscape="http://www.inkscape.org/namespaces/inkscape"
   xmlns:sodipodi="http://sodipodi.sourceforge.net/DTD/sodipodi-0.dtd"
   xmlns="http://www.w3.org/2000/svg"
   xmlns:svg="http://www.w3.org/2000/svg"><sodipodi:namedview
     id="namedview7"
     pagecolor="#ffffff"
     bordercolor="#000000"
     borderopacity="0.25"
     inkscape:showpageshadow="2"
     inkscape:pageopacity="0.0"
     inkscape:pagecheckerboard="0"
     inkscape:deskcolor="#d1d1d1"
     inkscape:document-units="mm"
     showgrid="false"
     inkscape:zoom="0.093205495"
     inkscape:cx="5589.7992"
     inkscape:cy="-311.14045"
     inkscape:window-width="1920"
     inkscape:window-height="1017"
     inkscape:window-x="-8"
     inkscape:window-y="-8"
     inkscape:window-maximized="1"
     inkscape:current-layer="layer1"
     showguides="false"
     inkscape:lockguides="false" /><defs
     id="defs2" /><g
     inkscape:groupmode="layer"
     id="layer2"
     inkscape:label="Camada 2"
     transform="translate(-1200.5938,-372.3457)"><g
       id="rect11268"><path
         style="color:#000000;fill:#ffffff;stroke-width:0.265;-inkscape-stroke:none"
         d="m 1211.8437,372.47772 h 189.7387 c 6.1591,0 11.1175,5.61715 11.1175,12.5945 v 283.00556 c 0,6.97735 -4.9584,12.59449 -11.1175,12.59449 h -189.7387 c -6.1591,0 -11.1175,-5.61714 -11.1175,-12.59449 V 385.07222 c 0,-6.97735 4.9584,-12.5945 11.1175,-12.5945 z"
         id="path11866" /><path
         style="color:#000000;fill:#000000;-inkscape-stroke:none"
         d="m 1211.8438,372.3457 c -6.2397,0 -11.25,5.68645 -11.25,12.72657 v 283.00585 c 0,7.04012 5.0103,12.72657 11.25,12.72657 h 189.7382 c 6.2397,0 11.25,-5.68645 11.25,-12.72657 V 385.07227 c 0,-7.04012 -5.0103,-12.72657 -11.25,-12.72657 z m 0,0.26367 h 189.7382 c 6.0786,0 10.9864,5.54833 10.9864,12.4629 v 283.00585 c 0,6.91457 -4.9078,12.46094 -10.9864,12.46094 h -189.7382 c -6.0786,0 -10.9844,-5.54637 -10.9844,-12.46094 V 385.07227 c 0,-6.91457 4.9058,-12.4629 10.9844,-12.4629 z"
         id="path11868" /></g><path
       style="color:#000000;fill:#003399;-inkscape-stroke:none"
       d="m 1238.7012,397.65234 c -1.4026,0 -4.5251,0.69248 -7.4004,2.81836 -2.8753,2.12588 -5.4375,5.72834 -5.4375,11.41407 v 232.9414 c 0,5.88138 3.818,10.66602 8.6308,10.66602 h 140.3125 c 7.2095,0 12.7325,-7.14983 12.7325,-14.26758 V 408.32227 c 0,-5.8812 -3.8158,-10.66993 -8.6289,-10.66993 z m 0,0.79883 h 140.209 c 4.2778,0 7.8281,4.33386 7.8281,9.8711 v 232.90234 c 0,6.70172 -5.2568,13.46875 -11.9317,13.46875 h -140.3125 c -4.2781,0 -7.83,-4.3301 -7.83,-9.86719 v -232.9414 c 0,-5.44816 2.3972,-8.76478 5.1113,-10.77149 2.7141,-2.00671 5.8088,-2.66211 6.9258,-2.66211 z"
       id="path11270" /></g><g
     inkscape:label="Camada 1"
     inkscape:groupmode="layer"
     id="layer1"
     style="display:inline"
     transform="translate(-1200.5938,-372.3457)"><ellipse
       style="fill:#003399;fill-opacity:1;stroke:none;stroke-width:0.264999;stroke-dasharray:none;stroke-opacity:1"
       id="ellipse11432"
       cx="1226.2762"
       cy="398.09055"
       rx="15.193922"
       ry="15.187474" /><g
       aria-label="100"
       transform="scale(1.0002122,0.99978784)"
       id="text11436"
       style="font-size:88.1944px;font-family:'Cambria Math';-inkscape-font-specification:'Cambria Math';fill:#003399;stroke-width:0.264999"><path
         d="m 1247.8624,508.64843 q -1.8521,0.70555 -5.8208,1.67569 -3.9688,0.97014 -6.4382,1.32292 l -0.882,-4.93889 q 4.498,-0.97014 9.1723,-3.26319 4.7625,-2.29305 7.9375,-5.02708 h 0.088 l 5.3799,0.88194 v 49.74164 l 10.9361,0.79375 v 4.32153 h -31.75 v -4.32153 l 11.3771,-0.79375 z"
         style="-inkscape-font-specification:Merriweather;stroke-width:0.265"
         id="path11609" /><path
         d="m 1298.0451,554.95049 q -11.2889,0 -16.9334,-7.76111 -5.5562,-7.8493 -5.5562,-20.19652 0,-8.64305 3.175,-15.08124 3.175,-6.52638 8.643,-9.96596 5.4681,-3.43959 11.9945,-3.43959 11.4653,0 16.7569,7.40833 5.2917,7.32014 5.2917,20.10833 0,8.55485 -3.0868,15.16943 -2.9986,6.52639 -8.3785,10.14236 -5.2917,3.61597 -11.9062,3.61597 z m 0.3527,-4.49792 q 13.141,0 13.141,-23.5479 0,-11.46527 -2.9986,-17.63888 -2.9104,-6.17361 -9.8778,-6.17361 -6.7909,0 -10.0541,5.90903 -3.2632,5.82083 -3.2632,16.75693 0,11.20069 3.0868,17.99166 3.175,6.70277 9.9659,6.70277 z"
         style="-inkscape-font-specification:Merriweather;stroke-width:0.265"
         id="path11611" /><path
         d="m 1354.754,554.95049 q -11.2889,0 -16.9333,-7.76111 -5.5562,-7.8493 -5.5562,-20.19652 0,-8.64305 3.175,-15.08124 3.175,-6.52638 8.643,-9.96596 5.4681,-3.43959 11.9944,-3.43959 11.4653,0 16.757,7.40833 5.2916,7.32014 5.2916,20.10833 0,8.55485 -3.0868,15.16943 -2.9986,6.52639 -8.3784,10.14236 -5.2917,3.61597 -11.9063,3.61597 z m 0.3528,-4.49792 q 13.141,0 13.141,-23.5479 0,-11.46527 -2.9986,-17.63888 -2.9105,-6.17361 -9.8778,-6.17361 -6.791,0 -10.0542,5.90903 -3.2632,5.82083 -3.2632,16.75693 0,11.20069 3.0868,17.99166 3.175,6.70277 9.966,6.70277 z"
         style="-inkscape-font-specification:Merriweather;stroke-width:0.265"
         id="path11613" /></g><g
       aria-label="100"
       transform="scale(1.0002122,0.99978784)"
       id="text11440"
       style="font-size:16.9333px;font-family:'Cambria Math';-inkscape-font-specification:'Cambria Math';fill:#ffffff;stroke-width:0.185397"><path
         d="m 1214.7723,394.71219 q -0.3556,0.13546 -1.1176,0.32173 -0.762,0.18626 -1.2361,0.254 l -0.1693,-0.94827 q 0.8636,-0.18626 1.761,-0.62653 0.9144,-0.44027 1.524,-0.9652 h 0.017 l 1.0329,0.16934 v 9.55038 l 2.0997,0.1524 v 0.82973 h -6.096 v -0.82973 l 2.1844,-0.1524 z"
         style="-inkscape-font-specification:Merriweather"
         id="path11596" /><path
         d="m 1224.4074,403.60217 q -2.1675,0 -3.2512,-1.49013 -1.0668,-1.50707 -1.0668,-3.87773 0,-1.65946 0.6096,-2.89559 0.6096,-1.25307 1.6595,-1.91347 1.0498,-0.66039 2.3029,-0.66039 2.2013,0 3.2173,1.42239 1.016,1.40547 1.016,3.8608 0,1.64253 -0.5927,2.91252 -0.5757,1.25307 -1.6086,1.94733 -1.016,0.69427 -2.286,0.69427 z m 0.068,-0.8636 q 2.5231,0 2.5231,-4.52119 0,-2.20133 -0.5758,-3.38666 -0.5588,-1.18533 -1.8965,-1.18533 -1.3038,0 -1.9304,1.13453 -0.6265,1.1176 -0.6265,3.21733 0,2.15052 0.5927,3.45439 0.6096,1.28693 1.9134,1.28693 z"
         style="-inkscape-font-specification:Merriweather"
         id="path11598" /><path
         d="m 1235.2955,403.60217 q -2.1675,0 -3.2512,-1.49013 -1.0668,-1.50707 -1.0668,-3.87773 0,-1.65946 0.6096,-2.89559 0.6096,-1.25307 1.6595,-1.91347 1.0498,-0.66039 2.3029,-0.66039 2.2013,0 3.2173,1.42239 1.016,1.40547 1.016,3.8608 0,1.64253 -0.5926,2.91252 -0.5758,1.25307 -1.6087,1.94733 -1.016,0.69427 -2.286,0.69427 z m 0.068,-0.8636 q 2.5231,0 2.5231,-4.52119 0,-2.20133 -0.5757,-3.38666 -0.5588,-1.18533 -1.8966,-1.18533 -1.3038,0 -1.9304,1.13453 -0.6265,1.1176 -0.6265,3.21733 0,2.15052 0.5927,3.45439 0.6096,1.28693 1.9134,1.28693 z"
         style="-inkscape-font-specification:Merriweather"
         id="path11600" /></g><ellipse
       style="fill:#003399;fill-opacity:1;stroke:none;stroke-width:0.264999;stroke-dasharray:none;stroke-opacity:1"
       id="ellipse11442"
       cx="-1387.1497"
       cy="-655.05939"
       transform="scale(-1)"
       rx="15.193922"
       ry="15.187474" /><g
       aria-label="100"
       transform="scale(1.0002122,0.99978784)"
       id="text11454"
       style="font-size:16.9333px;font-family:'Cambria Math';-inkscape-font-specification:'Cambria Math';fill:#ffffff;stroke-width:0.185397"><path
         d="m 1375.6117,651.73556 q -0.3556,0.13547 -1.1176,0.32173 -0.762,0.18627 -1.2361,0.254 l -0.1694,-0.94826 q 0.8636,-0.18627 1.7611,-0.62653 0.9144,-0.44027 1.524,-0.9652 h 0.017 l 1.0329,0.16933 v 9.55038 l 2.0998,0.1524 v 0.82973 h -6.096 v -0.82973 l 2.1844,-0.1524 z"
         style="-inkscape-font-specification:Merriweather"
         id="path11572" /><path
         d="m 1385.2467,660.62554 q -2.1674,0 -3.2512,-1.49013 -1.0668,-1.50706 -1.0668,-3.87772 0,-1.65947 0.6096,-2.8956 0.6096,-1.25306 1.6595,-1.91346 1.0499,-0.6604 2.3029,-0.6604 2.2014,0 3.2174,1.4224 1.016,1.40546 1.016,3.86079 0,1.64253 -0.5927,2.91253 -0.5757,1.25306 -1.6087,1.94733 -1.016,0.69426 -2.286,0.69426 z m 0.068,-0.86359 q 2.523,0 2.523,-4.5212 0,-2.20132 -0.5757,-3.38666 -0.5588,-1.18533 -1.8965,-1.18533 -1.3039,0 -1.9304,1.13453 -0.6266,1.1176 -0.6266,3.21733 0,2.15053 0.5927,3.4544 0.6096,1.28693 1.9135,1.28693 z"
         style="-inkscape-font-specification:Merriweather"
         id="path11574" /><path
         d="m 1396.1348,660.62554 q -2.1674,0 -3.2511,-1.49013 -1.0668,-1.50706 -1.0668,-3.87772 0,-1.65947 0.6096,-2.8956 0.6096,-1.25306 1.6594,-1.91346 1.0499,-0.6604 2.3029,-0.6604 2.2014,0 3.2174,1.4224 1.016,1.40546 1.016,3.86079 0,1.64253 -0.5927,2.91253 -0.5757,1.25306 -1.6087,1.94733 -1.016,0.69426 -2.286,0.69426 z m 0.068,-0.86359 q 2.523,0 2.523,-4.5212 0,-2.20132 -0.5757,-3.38666 -0.5588,-1.18533 -1.8965,-1.18533 -1.3039,0 -1.9304,1.13453 -0.6265,1.1176 -0.6265,3.21733 0,2.15053 0.5926,3.4544 0.6096,1.28693 1.9135,1.28693 z"
         style="-inkscape-font-specification:Merriweather"
         id="path11576" /></g></g></svg>
