<?xml version="1.0" encoding="UTF-8" standalone="no"?>
<!-- Created with Inkscape (http://www.inkscape.org/) -->

<svg
   width="802.1604"
   height="1165.8292"
   viewBox="0 0 212.23828 308.45899"
   version="1.1"
   id="svg5"
   inkscape:version="1.2.1 (9c6d41e410, 2022-07-14)"
   sodipodi:docname="cartas.svg"
   inkscape:export-filename="cartacinco.svg"
   inkscape:export-xdpi="96"
   inkscape:export-ydpi="96"
   xml:space="preserve"
   xmlns:inkscape="http://www.inkscape.org/namespaces/inkscape"
   xmlns:sodipodi="http://sodipodi.sourceforge.net/DTD/sodipodi-0.dtd"
   xmlns="http://www.w3.org/2000/svg"
   xmlns:svg="http://www.w3.org/2000/svg"><sodipodi:namedview
     id="namedview7"
     pagecolor="#ffffff"
     bordercolor="#000000"
     borderopacity="0.25"
     inkscape:showpageshadow="2"
     inkscape:pageopacity="0.0"
     inkscape:pagecheckerboard="0"
     inkscape:deskcolor="#d1d1d1"
     inkscape:document-units="mm"
     showgrid="false"
     inkscape:zoom="0.093205495"
     inkscape:cx="5589.7992"
     inkscape:cy="-311.14045"
     inkscape:window-width="1920"
     inkscape:window-height="1017"
     inkscape:window-x="-8"
     inkscape:window-y="-8"
     inkscape:window-maximized="1"
     inkscape:current-layer="layer1"
     showguides="false"
     inkscape:lockguides="false" /><defs
     id="defs2" /><g
     inkscape:groupmode="layer"
     id="layer2"
     inkscape:label="Camada 2"
     transform="translate(5.7753906,-372.3457)"><g
       id="rect11228"><path
         style="color:#000000;fill:#ffffff;stroke-width:0.265;-inkscape-stroke:none"
         d="M 5.4738779,372.47772 H 195.21258 c 6.1591,0 11.11751,5.61715 11.11751,12.5945 v 283.00556 c 0,6.97735 -4.95841,12.59449 -11.11751,12.59449 H 5.4738779 c -6.15909569,0 -11.1175013,-5.61714 -11.1175013,-12.59449 V 385.07222 c 0,-6.97735 4.95840561,-12.5945 11.1175013,-12.5945 z"
         id="path11966" /><path
         style="color:#000000;fill:#000000;-inkscape-stroke:none"
         d="m 5.4746094,372.3457 c -6.23965019,0 -11.25,5.68645 -11.25,12.72657 v 283.00585 c 0,7.04012 5.01034981,12.72657 11.25,12.72657 H 195.21289 c 6.23965,0 11.25,-5.68645 11.25,-12.72657 V 385.07227 c 0,-7.04012 -5.01035,-12.72657 -11.25,-12.72657 z m 0,0.26367 H 195.21289 c 6.07853,0 10.98438,5.54833 10.98438,12.4629 v 283.00585 c 0,6.91457 -4.90585,12.46094 -10.98438,12.46094 H 5.4746094 c -6.07852894,0 -10.9863281,-5.54637 -10.9863281,-12.46094 V 385.07227 c 0,-6.91457 4.90779916,-12.4629 10.9863281,-12.4629 z"
         id="path11968" /></g><path
       style="color:#000000;fill:#003399;-inkscape-stroke:none"
       d="m 32.332031,397.65234 c -1.40259,0 -4.527061,0.69248 -7.402344,2.81836 -2.875282,2.12588 -5.435546,5.72834 -5.435546,11.41407 v 232.9414 c 0,5.88138 3.817971,10.66602 8.630859,10.66602 h 140.31055 c 7.20953,0 12.73242,-7.14983 12.73242,-14.26758 V 408.32227 c 0,-5.8812 -3.81382,-10.66993 -8.62695,-10.66993 z m 0,0.79883 H 172.54102 c 4.2779,0 7.82812,4.33386 7.82812,9.8711 v 232.90234 c 0,6.70172 -5.25868,13.46875 -11.93359,13.46875 H 28.125 c -4.278099,0 -7.832031,-4.33009 -7.832031,-9.86719 v -232.9414 c 0,-5.44816 2.399182,-8.76478 5.113281,-10.77149 2.714099,-2.00671 5.808761,-2.66211 6.925781,-2.66211 z"
       id="path11230" /></g><g
     inkscape:label="Camada 1"
     inkscape:groupmode="layer"
     id="layer1"
     style="display:inline"
     transform="translate(5.7753906,-372.3457)"><ellipse
       style="fill:#003399;fill-opacity:1;stroke:none;stroke-width:0.264999;stroke-dasharray:none;stroke-opacity:1"
       id="ellipse11280"
       cx="19.906466"
       cy="398.09055"
       rx="15.193922"
       ry="15.187474" /><g
       aria-label="5"
       transform="scale(1.0002122,0.99978784)"
       id="text11284"
       style="font-size:106.086px;font-family:'Cambria Math';-inkscape-font-specification:'Cambria Math';fill:#003399;stroke-width:0.264999"><path
         d="m 77.51358,563.49853 q 2.970408,0.31826 6.36516,0.31826 7.532106,0 13.79118,-3.07649 6.25907,-3.0765 9.866,-8.48688 3.60692,-5.41039 3.60692,-12.30598 0,-17.07984 -15.806812,-17.07984 -3.500838,0 -7.850364,1.06086 -4.24344,0.95477 -7.42602,2.33389 l -2.864322,-2.01564 5.198214,-38.19096 h 30.234514 l 1.06086,-2.01563 h 6.57733 l -1.90955,10.92686 H 90.2439 l -4.879956,24.71804 q 2.864322,-1.48521 7.319934,-2.65215 4.455612,-1.16695 8.911222,-1.16695 10.18426,0 16.01899,5.72864 5.83473,5.72865 5.83473,16.65551 0,8.38079 -4.87996,15.48855 -4.77387,7.10776 -13.57901,11.3512 -8.805134,4.24344 -20.05025,4.24344 -4.561698,0 -7.42602,-0.7426 z"
         style="-inkscape-font-specification:Merriweather;stroke-width:0.265"
         id="path11833" /></g><g
       aria-label="5"
       transform="scale(1.0002122,0.99978784)"
       id="text11288"
       style="font-size:22.5778px;font-family:'Cambria Math';-inkscape-font-specification:'Cambria Math';fill:#ffffff;stroke-width:0.185397"><path
         d="m 15.048022,406.00952 q 0.632178,0.0677 1.354668,0.0677 1.603024,0 2.935114,-0.65475 1.33209,-0.65476 2.099736,-1.80623 0.767645,-1.15147 0.767645,-2.61902 0,-3.63503 -3.364092,-3.63503 -0.745068,0 -1.670758,0.22578 -0.903112,0.2032 -1.580446,0.49671 l -0.6096,-0.42898 1.106312,-8.12801 h 6.434673 l 0.225778,-0.42897 h 1.399824 l -0.406401,2.32551 h -5.983117 l -1.038579,5.26063 q 0.609601,-0.31609 1.557869,-0.56445 0.948267,-0.24835 1.896535,-0.24835 2.167469,0 3.409248,1.2192 1.241779,1.2192 1.241779,3.54471 0,1.78365 -1.038579,3.29636 -1.016001,1.51271 -2.889959,2.41583 -1.873957,0.90311 -4.267204,0.90311 -0.970845,0 -1.580446,-0.15805 z"
         style="-inkscape-font-specification:Merriweather"
         id="path11828" /></g><ellipse
       style="fill:#003399;fill-opacity:1;stroke:none;stroke-width:0.264999;stroke-dasharray:none;stroke-opacity:1"
       id="ellipse11290"
       cx="-180.77997"
       cy="-655.05939"
       transform="scale(-1)"
       rx="15.193922"
       ry="15.187474" /><g
       aria-label="5"
       transform="scale(1.0002122,0.99978784)"
       id="text11294"
       style="font-size:22.5778px;font-family:'Cambria Math';-inkscape-font-specification:'Cambria Math';fill:#ffffff;stroke-width:0.185397"><path
         d="m 175.88739,663.0329 q 0.63218,0.0677 1.35467,0.0677 1.60302,0 2.93511,-0.65476 1.33209,-0.65475 2.09974,-1.80622 0.76764,-1.15147 0.76764,-2.61903 0,-3.63502 -3.36409,-3.63502 -0.74507,0 -1.67076,0.22578 -0.90311,0.2032 -1.58044,0.49671 l -0.6096,-0.42898 1.10631,-8.12801 h 6.43467 l 0.22578,-0.42898 h 1.39982 l -0.4064,2.32552 h -5.98311 l -1.03858,5.26062 q 0.6096,-0.31609 1.55786,-0.56444 0.94827,-0.24836 1.89654,-0.24836 2.16747,0 3.40925,1.2192 1.24178,1.21921 1.24178,3.54472 0,1.78364 -1.03858,3.29636 -1.016,1.51271 -2.88996,2.41582 -1.87396,0.90311 -4.2672,0.90311 -0.97085,0 -1.58045,-0.15804 z"
         style="-inkscape-font-specification:Merriweather"
         id="path11821" /></g></g></svg>
