<?xml version="1.0" encoding="UTF-8" standalone="no"?>
<!-- Created with Inkscape (http://www.inkscape.org/) -->

<svg
   width="802.16785"
   height="1165.8292"
   viewBox="0 0 212.24025 308.45899"
   version="1.1"
   id="svg5"
   inkscape:version="1.2.1 (9c6d41e410, 2022-07-14)"
   sodipodi:docname="cartas.svg"
   inkscape:export-filename="cartacinco.svg"
   inkscape:export-xdpi="96"
   inkscape:export-ydpi="96"
   xml:space="preserve"
   xmlns:inkscape="http://www.inkscape.org/namespaces/inkscape"
   xmlns:sodipodi="http://sodipodi.sourceforge.net/DTD/sodipodi-0.dtd"
   xmlns="http://www.w3.org/2000/svg"
   xmlns:svg="http://www.w3.org/2000/svg"><sodipodi:namedview
     id="namedview7"
     pagecolor="#ffffff"
     bordercolor="#000000"
     borderopacity="0.25"
     inkscape:showpageshadow="2"
     inkscape:pageopacity="0.0"
     inkscape:pagecheckerboard="0"
     inkscape:deskcolor="#d1d1d1"
     inkscape:document-units="mm"
     showgrid="false"
     inkscape:zoom="0.093205495"
     inkscape:cx="5589.7992"
     inkscape:cy="-311.14045"
     inkscape:window-width="1920"
     inkscape:window-height="1017"
     inkscape:window-x="-8"
     inkscape:window-y="-8"
     inkscape:window-maximized="1"
     inkscape:current-layer="layer1"
     showguides="false"
     inkscape:lockguides="false" /><defs
     id="defs2" /><g
     inkscape:groupmode="layer"
     id="layer2"
     inkscape:label="Camada 2"
     transform="translate(503.58008,-372.3457)"><g
       id="rect11236"><path
         style="color:#000000;fill:#ffffff;stroke-width:0.265;-inkscape-stroke:none"
         d="m -492.32928,372.47772 h 189.73871 c 6.1591,0 11.1175,5.61715 11.1175,12.5945 v 283.00556 c 0,6.97735 -4.9584,12.59449 -11.1175,12.59449 h -189.73871 c -6.15909,0 -11.1175,-5.61714 -11.1175,-12.59449 V 385.07222 c 0,-6.97735 4.95841,-12.5945 11.1175,-12.5945 z"
         id="path11946" /><path
         style="color:#000000;fill:#000000;-inkscape-stroke:none"
         d="m -492.33008,372.3457 c -6.23965,0 -11.25,5.68645 -11.25,12.72657 v 283.00585 c 0,7.04012 5.01035,12.72657 11.25,12.72657 h 189.74024 c 6.23965,0 11.25,-5.68645 11.25,-12.72657 V 385.07227 c 0,-7.04012 -5.01035,-12.72657 -11.25,-12.72657 z m 0,0.26367 h 189.74024 c 6.07853,0 10.98437,5.54833 10.98437,12.4629 v 283.00585 c 0,6.91457 -4.90584,12.46094 -10.98437,12.46094 h -189.74024 c -6.07853,0 -10.98437,-5.54637 -10.98437,-12.46094 V 385.07227 c 0,-6.91457 4.90584,-12.4629 10.98437,-12.4629 z"
         id="path11948" /></g><path
       style="color:#000000;fill:#003399;-inkscape-stroke:none"
       d="m -465.4707,397.65234 c -1.40259,0 -4.52706,0.69248 -7.40235,2.81836 -2.87528,2.12588 -5.4375,5.72834 -5.4375,11.41407 v 232.9414 c 0,5.88138 3.81993,10.66602 8.63282,10.66602 h 140.31054 c 7.20953,0 12.73242,-7.14983 12.73242,-14.26758 V 408.32227 c 0,-5.8812 -3.81382,-10.66993 -8.62695,-10.66993 z m 0,0.79883 h 140.20898 c 4.2779,0 7.82617,4.33386 7.82617,9.8711 v 232.90234 c 0,6.70172 -5.25672,13.46875 -11.93164,13.46875 h -140.31054 c -4.27811,0 -7.83204,-4.33009 -7.83204,-9.86719 v -232.9414 c 0,-5.44816 2.39919,-8.76478 5.11329,-10.77149 2.7141,-2.00671 5.80876,-2.66211 6.92578,-2.66211 z"
       id="path11238" /></g><g
     inkscape:label="Camada 1"
     inkscape:groupmode="layer"
     id="layer1"
     style="display:inline"
     transform="translate(503.58008,-372.3457)"><ellipse
       style="fill:#003399;fill-opacity:1;stroke:none;stroke-width:0.264999;stroke-dasharray:none;stroke-opacity:1"
       id="ellipse11312"
       cx="-477.8967"
       cy="398.09055"
       rx="15.193922"
       ry="15.187474" /><g
       aria-label="2"
       transform="scale(1.0002122,0.99978784)"
       id="text11316"
       style="font-size:123.725px;font-family:'Cambria Math';-inkscape-font-specification:'Cambria Math';fill:#003399;stroke-width:0.264999"><path
         d="m -429.43261,560.58486 q 11.3827,-6.4337 20.90953,-14.72327 9.52682,-8.4133 15.09445,-17.3215 5.69135,-8.9082 5.69135,-16.8266 0,-6.80488 -4.08293,-10.76408 -4.08292,-4.08292 -11.63015,-4.08292 -7.05232,0 -12.12505,2.84567 -5.07272,2.72195 -9.4031,6.80488 l -3.9592,-5.56763 q 4.33038,-5.07272 12.3725,-9.15565 8.04213,-4.20665 17.19778,-4.20665 8.66075,0 14.59955,3.21685 5.9388,3.09313 8.78447,8.16585 2.84568,5.07273 2.84568,11.13525 0,12.24878 -11.75388,25.2399 -11.75387,12.8674 -29.44655,23.13658 l 38.35475,-2.84568 4.33038,-10.64035 6.30997,1.23725 -3.21685,19.54855 h -59.01682 z"
         style="-inkscape-font-specification:Merriweather;stroke-width:0.265"
         id="path11795" /></g><g
       aria-label="2"
       transform="scale(1.0002122,0.99978784)"
       id="text11320"
       style="font-size:25.4px;font-family:'Cambria Math';-inkscape-font-specification:'Cambria Math';fill:#ffffff;stroke-width:0.185397"><path
         d="m -484.37392,405.13465 q 2.3368,-1.3208 4.2926,-3.0226 1.9558,-1.7272 3.0988,-3.556 1.1684,-1.8288 1.1684,-3.4544 0,-1.397 -0.8382,-2.2098 -0.8382,-0.8382 -2.3876,-0.8382 -1.4478,0 -2.4892,0.5842 -1.0414,0.5588 -1.9304,1.397 l -0.8128,-1.143 q 0.889,-1.0414 2.54,-1.8796 1.651,-0.8636 3.5306,-0.8636 1.778,0 2.9972,0.6604 1.2192,0.635 1.8034,1.6764 0.5842,1.0414 0.5842,2.286 0,2.5146 -2.413,5.1816 -2.413,2.6416 -6.0452,4.7498 l 7.874,-0.5842 0.889,-2.1844 1.2954,0.254 -0.6604,4.0132 h -12.1158 z"
         style="-inkscape-font-specification:Merriweather"
         id="path11790" /></g><ellipse
       style="fill:#003399;fill-opacity:1;stroke:none;stroke-width:0.264999;stroke-dasharray:none;stroke-opacity:1"
       id="ellipse11322"
       cx="317.02319"
       cy="-655.05939"
       transform="scale(-1)"
       rx="15.193922"
       ry="15.187474" /><g
       aria-label="2"
       transform="scale(1.0002122,0.99978784)"
       id="text11326"
       style="font-size:25.4px;font-family:'Cambria Math';-inkscape-font-specification:'Cambria Math';fill:#ffffff;stroke-width:0.185397"><path
         d="m -323.53453,662.15799 q 2.3368,-1.3208 4.2926,-3.0226 1.9558,-1.7272 3.0988,-3.556 1.1684,-1.8288 1.1684,-3.4544 0,-1.397 -0.8382,-2.2098 -0.8382,-0.8382 -2.3876,-0.8382 -1.4478,0 -2.4892,0.5842 -1.0414,0.5588 -1.9304,1.397 l -0.8128,-1.143 q 0.889,-1.0414 2.54,-1.8796 1.651,-0.8636 3.5306,-0.8636 1.778,0 2.9972,0.6604 1.2192,0.635 1.8034,1.6764 0.5842,1.0414 0.5842,2.286 0,2.5146 -2.413,5.1816 -2.413,2.6416 -6.0452,4.7498 l 7.874,-0.5842 0.889,-2.1844 1.2954,0.254 -0.6604,4.0132 h -12.1158 z"
         style="-inkscape-font-specification:Merriweather"
         id="path11783" /></g></g></svg>
