<?xml version="1.0" encoding="UTF-8" standalone="no"?>
<!-- Created with Inkscape (http://www.inkscape.org/) -->

<svg
   width="802.16052"
   height="1165.8292"
   viewBox="0 0 212.23832 308.45899"
   version="1.1"
   id="svg5"
   inkscape:version="1.2.1 (9c6d41e410, 2022-07-14)"
   sodipodi:docname="cartas.svg"
   inkscape:export-filename="cartacinco.svg"
   inkscape:export-xdpi="96"
   inkscape:export-ydpi="96"
   xml:space="preserve"
   xmlns:inkscape="http://www.inkscape.org/namespaces/inkscape"
   xmlns:sodipodi="http://sodipodi.sourceforge.net/DTD/sodipodi-0.dtd"
   xmlns="http://www.w3.org/2000/svg"
   xmlns:svg="http://www.w3.org/2000/svg"><sodipodi:namedview
     id="namedview7"
     pagecolor="#ffffff"
     bordercolor="#000000"
     borderopacity="0.25"
     inkscape:showpageshadow="2"
     inkscape:pageopacity="0.0"
     inkscape:pagecheckerboard="0"
     inkscape:deskcolor="#d1d1d1"
     inkscape:document-units="mm"
     showgrid="false"
     inkscape:zoom="0.093205495"
     inkscape:cx="5589.7992"
     inkscape:cy="-311.14045"
     inkscape:window-width="1920"
     inkscape:window-height="1017"
     inkscape:window-x="-8"
     inkscape:window-y="-8"
     inkscape:window-maximized="1"
     inkscape:current-layer="layer1"
     showguides="false"
     inkscape:lockguides="false" /><defs
     id="defs2" /><g
     inkscape:groupmode="layer"
     id="layer2"
     inkscape:label="Camada 2"
     transform="translate(-1425.4082,-372.3457)"><g
       id="rect11272"><path
         style="color:#000000;fill:#ffffff;stroke-width:0.265;-inkscape-stroke:none"
         d="m 1436.658,372.47772 h 189.7387 c 6.1591,0 11.1175,5.61715 11.1175,12.5945 v 283.00556 c 0,6.97735 -4.9584,12.59449 -11.1175,12.59449 H 1436.658 c -6.1591,0 -11.1175,-5.61714 -11.1175,-12.59449 V 385.07222 c 0,-6.97735 4.9584,-12.5945 11.1175,-12.5945 z"
         id="path11856" /><path
         style="color:#000000;fill:#000000;-inkscape-stroke:none"
         d="m 1436.6582,372.3457 c -6.2396,0 -11.25,5.68645 -11.25,12.72657 v 283.00585 c 0,7.04012 5.0104,12.72657 11.25,12.72657 h 189.7383 c 6.2396,0 11.25,-5.68645 11.25,-12.72657 V 385.07227 c 0,-7.04012 -5.0104,-12.72657 -11.25,-12.72657 z m 0,0.26367 h 189.7383 c 6.0785,0 10.9844,5.54833 10.9844,12.4629 v 283.00585 c 0,6.91457 -4.9059,12.46094 -10.9844,12.46094 h -189.7383 c -6.0785,0 -10.9844,-5.54637 -10.9844,-12.46094 V 385.07227 c 0,-6.91457 4.9059,-12.4629 10.9844,-12.4629 z"
         id="path11858" /></g><path
       style="color:#000000;fill:#003399;-inkscape-stroke:none"
       d="m 1463.5156,397.65234 c -1.4026,0 -4.527,0.69248 -7.4023,2.81836 -2.8753,2.12588 -5.4356,5.72834 -5.4356,11.41407 v 232.9414 c 0,5.88138 3.818,10.66602 8.6309,10.66602 h 140.3125 c 7.2095,0 12.7305,-7.14983 12.7305,-14.26758 V 408.32227 c 0,-5.8812 -3.8139,-10.66993 -8.627,-10.66993 z m 0,0.79883 h 140.209 c 4.2779,0 7.8281,4.33386 7.8281,9.8711 v 232.90234 c 0,6.70172 -5.2567,13.46875 -11.9316,13.46875 h -140.3125 c -4.2781,0 -7.8301,-4.3301 -7.8301,-9.86719 v -232.9414 c 0,-5.44816 2.3972,-8.76478 5.1113,-10.77149 2.7141,-2.00671 5.8088,-2.66211 6.9258,-2.66211 z"
       id="path11274" /></g><g
     inkscape:label="Camada 1"
     inkscape:groupmode="layer"
     id="layer1"
     style="display:inline"
     transform="translate(-1425.4082,-372.3457)"><ellipse
       style="fill:#003399;fill-opacity:1;stroke:none;stroke-width:0.264999;stroke-dasharray:none;stroke-opacity:1"
       id="ellipse11444"
       cx="1451.0906"
       cy="398.09055"
       rx="15.193922"
       ry="15.187474" /><g
       aria-label="∞"
       transform="scale(1.0002122,0.99978784)"
       id="text11448"
       style="font-size:106.086px;font-family:'Cambria Math';-inkscape-font-specification:'Cambria Math';fill:#003399;stroke-width:0.264999"><path
         d="m 1508.5408,548.0075 q -6.5774,0.10609 -11.6695,-2.75823 -5.0921,-2.97041 -7.8504,-7.85037 -2.7582,-4.98604 -2.7582,-10.6086 0,-6.25907 2.9704,-11.13903 3.0765,-4.87995 8.3808,-7.63819 5.4104,-2.75823 12.0938,-2.75823 7.3199,0 12.7303,4.13735 5.4104,4.13735 10.6086,11.24512 4.4556,-6.57734 9.9721,-10.92686 5.6226,-4.34953 11.8816,-4.34953 6.5774,0 11.3512,2.97041 4.7739,2.86432 7.32,7.74428 2.546,4.77387 2.546,10.39643 0,6.36516 -3.0764,11.24511 -2.9705,4.87996 -8.3808,7.63819 -5.4104,2.75824 -12.0938,2.75824 -7.1078,0 -12.306,-4.03127 -5.0921,-4.03127 -10.2904,-11.13903 -4.1373,6.36516 -9.6538,10.71469 -5.4104,4.24344 -11.7755,4.34952 z m 2.546,-7.95645 q 4.3496,0 8.593,-3.07649 4.2434,-3.18258 7.6382,-8.06254 -4.88,-7.21384 -9.6538,-11.77554 -4.6678,-4.66779 -10.2904,-4.66779 -6.0469,0 -9.3355,3.50084 -3.2887,3.50084 -3.2887,9.01731 0,4.34953 2.2278,7.85037 2.2278,3.39475 5.9408,5.30429 3.8191,1.90955 8.1686,1.90955 z m 40.5249,-26.94584 q -7.8504,0 -15.9129,11.3512 4.8799,7.42602 9.3355,11.98772 4.5617,4.5617 10.1843,4.5617 5.9408,0 9.2295,-3.50084 3.2887,-3.50084 3.2887,-9.01731 0,-4.45561 -2.2279,-7.95645 -2.1217,-3.50084 -5.8347,-5.41039 -3.713,-2.01563 -8.0625,-2.01563 z"
         style="-inkscape-font-specification:Merriweather;stroke-width:0.265"
         id="path11587" /></g><ellipse
       style="fill:#003399;fill-opacity:1;stroke:none;stroke-width:0.264999;stroke-dasharray:none;stroke-opacity:1"
       id="ellipse11450"
       cx="-1611.964"
       cy="-655.05939"
       transform="scale(-1)"
       rx="15.193922"
       ry="15.187474" /><g
       aria-label="∞"
       transform="scale(1.0002122,0.99978784)"
       id="text11458"
       style="font-size:25.4px;font-family:'Cambria Math';-inkscape-font-specification:'Cambria Math';fill:#ffffff;stroke-width:0.264999"><path
         d="m 1445.3599,403.28042 q -1.5748,0.0254 -2.794,-0.6604 -1.2192,-0.7112 -1.8796,-1.8796 -0.6604,-1.1938 -0.6604,-2.54 0,-1.4986 0.7112,-2.667 0.7366,-1.1684 2.0066,-1.8288 1.2954,-0.6604 2.8956,-0.6604 1.7526,0 3.048,0.9906 1.2954,0.9906 2.54,2.6924 1.0668,-1.5748 2.3876,-2.6162 1.3462,-1.0414 2.8448,-1.0414 1.5748,0 2.7178,0.7112 1.143,0.6858 1.7526,1.8542 0.6096,1.143 0.6096,2.4892 0,1.524 -0.7366,2.6924 -0.7112,1.1684 -2.0066,1.8288 -1.2954,0.6604 -2.8956,0.6604 -1.7018,0 -2.9464,-0.9652 -1.2192,-0.9652 -2.4638,-2.667 -0.9906,1.524 -2.3114,2.5654 -1.2954,1.016 -2.8194,1.0414 z m 0.6096,-1.905 q 1.0414,0 2.0574,-0.7366 1.016,-0.762 1.8288,-1.9304 -1.1684,-1.7272 -2.3114,-2.8194 -1.1176,-1.1176 -2.4638,-1.1176 -1.4478,0 -2.2352,0.8382 -0.7874,0.8382 -0.7874,2.159 0,1.0414 0.5334,1.8796 0.5334,0.8128 1.4224,1.27 0.9144,0.4572 1.9558,0.4572 z m 9.7028,-6.4516 q -1.8796,0 -3.81,2.7178 1.1684,1.778 2.2352,2.8702 1.0922,1.0922 2.4384,1.0922 1.4224,0 2.2098,-0.8382 0.7874,-0.8382 0.7874,-2.159 0,-1.0668 -0.5334,-1.905 -0.508,-0.8382 -1.397,-1.2954 -0.889,-0.4826 -1.9304,-0.4826 z"
         style="-inkscape-font-specification:Merriweather;stroke-width:0.265"
         id="path11567" /></g><g
       aria-label="∞"
       transform="scale(1.0002122,0.99978784)"
       id="text11462"
       style="font-size:25.4px;font-family:'Cambria Math';-inkscape-font-specification:'Cambria Math';fill:#ffffff;stroke-width:0.264999"><path
         d="m 1606.1991,660.30383 q -1.5748,0.0254 -2.794,-0.6604 -1.2192,-0.7112 -1.8796,-1.8796 -0.6604,-1.1938 -0.6604,-2.54 0,-1.4986 0.7112,-2.667 0.7366,-1.1684 2.0066,-1.8288 1.2954,-0.6604 2.8956,-0.6604 1.7526,0 3.048,0.9906 1.2954,0.9906 2.54,2.6924 1.0668,-1.5748 2.3876,-2.6162 1.3462,-1.0414 2.8448,-1.0414 1.5748,0 2.7178,0.7112 1.143,0.6858 1.7526,1.8542 0.6096,1.143 0.6096,2.4892 0,1.524 -0.7366,2.6924 -0.7112,1.1684 -2.0066,1.8288 -1.2954,0.6604 -2.8956,0.6604 -1.7018,0 -2.9464,-0.9652 -1.2192,-0.9652 -2.4638,-2.667 -0.9906,1.524 -2.3114,2.5654 -1.2954,1.016 -2.8194,1.0414 z m 0.6096,-1.905 q 1.0414,0 2.0574,-0.7366 1.016,-0.762 1.8288,-1.9304 -1.1684,-1.7272 -2.3114,-2.8194 -1.1176,-1.1176 -2.4638,-1.1176 -1.4478,0 -2.2352,0.8382 -0.7874,0.8382 -0.7874,2.159 0,1.0414 0.5334,1.8796 0.5334,0.8128 1.4224,1.27 0.9144,0.4572 1.9558,0.4572 z m 9.7028,-6.4516 q -1.8796,0 -3.81,2.7178 1.1684,1.778 2.2352,2.8702 1.0922,1.0922 2.4384,1.0922 1.4224,0 2.2098,-0.8382 0.7874,-0.8382 0.7874,-2.159 0,-1.0668 -0.5334,-1.905 -0.508,-0.8382 -1.397,-1.2954 -0.889,-0.4826 -1.9304,-0.4826 z"
         style="-inkscape-font-specification:Merriweather;stroke-width:0.265"
         id="path11562" /></g></g></svg>
