<?xml version="1.0" encoding="UTF-8" standalone="no"?>
<!-- Created with Inkscape (http://www.inkscape.org/) -->

<svg
   width="802.1604"
   height="1165.8292"
   viewBox="0 0 212.23828 308.45899"
   version="1.1"
   id="svg5"
   inkscape:version="1.2.1 (9c6d41e410, 2022-07-14)"
   sodipodi:docname="cartas.svg"
   inkscape:export-filename="cartacinco.svg"
   inkscape:export-xdpi="96"
   inkscape:export-ydpi="96"
   xml:space="preserve"
   xmlns:inkscape="http://www.inkscape.org/namespaces/inkscape"
   xmlns:sodipodi="http://sodipodi.sourceforge.net/DTD/sodipodi-0.dtd"
   xmlns="http://www.w3.org/2000/svg"
   xmlns:svg="http://www.w3.org/2000/svg"><sodipodi:namedview
     id="namedview7"
     pagecolor="#ffffff"
     bordercolor="#000000"
     borderopacity="0.25"
     inkscape:showpageshadow="2"
     inkscape:pageopacity="0.0"
     inkscape:pagecheckerboard="0"
     inkscape:deskcolor="#d1d1d1"
     inkscape:document-units="mm"
     showgrid="false"
     inkscape:zoom="0.093205495"
     inkscape:cx="5589.7992"
     inkscape:cy="-311.14045"
     inkscape:window-width="1920"
     inkscape:window-height="1017"
     inkscape:window-x="-8"
     inkscape:window-y="-8"
     inkscape:window-maximized="1"
     inkscape:current-layer="layer1"
     showguides="false"
     inkscape:lockguides="false" /><defs
     id="defs2" /><g
     inkscape:groupmode="layer"
     id="layer2"
     inkscape:label="Camada 2"
     transform="translate(979.30273,-372.3457)"><g
       id="rect11244"><path
         style="color:#000000;fill:#ffffff;stroke-width:0.265;-inkscape-stroke:none"
         d="m -968.05242,372.47772 h 189.73871 c 6.15909,0 11.1175,5.61715 11.1175,12.5945 v 283.00556 c 0,6.97735 -4.95841,12.59449 -11.1175,12.59449 h -189.73871 c -6.1591,0 -11.1175,-5.61714 -11.1175,-12.59449 V 385.07222 c 0,-6.97735 4.9584,-12.5945 11.1175,-12.5945 z"
         id="path11926" /><path
         style="color:#000000;fill:#000000;-inkscape-stroke:none"
         d="m -968.05273,372.3457 c -6.23965,0 -11.25,5.68645 -11.25,12.72657 v 283.00585 c 0,7.04012 5.01035,12.72657 11.25,12.72657 h 189.73828 c 6.23965,0 11.25,-5.68645 11.25,-12.72657 V 385.07227 c 0,-7.04012 -5.01035,-12.72657 -11.25,-12.72657 z m 0,0.26367 h 189.73828 c 6.07853,0 10.98633,5.54833 10.98633,12.4629 v 283.00585 c 0,6.91457 -4.9078,12.46094 -10.98633,12.46094 h -189.73828 c -6.07853,0 -10.98438,-5.54637 -10.98438,-12.46094 V 385.07227 c 0,-6.91457 4.90585,-12.4629 10.98438,-12.4629 z"
         id="path11928" /></g><path
       style="color:#000000;fill:#003399;-inkscape-stroke:none"
       d="m -941.19336,397.65234 c -1.40259,0 -4.52706,0.69248 -7.40234,2.81836 -2.87529,2.12588 -5.4375,5.72834 -5.4375,11.41407 v 232.9414 c 0,5.88138 3.81797,10.66602 8.63086,10.66602 h 140.3125 c 7.20953,0 12.73242,-7.14983 12.73242,-14.26758 V 408.32227 c 0,-5.8812 -3.81578,-10.66993 -8.62891,-10.66993 z m 0,0.79883 h 140.20703 c 4.2779,0 7.82813,4.33386 7.82813,9.8711 v 232.90234 c 0,6.70172 -5.25673,13.46875 -11.93164,13.46875 h -140.3125 c -4.27811,0 -7.83008,-4.33009 -7.83008,-9.86719 v -232.9414 c 0,-5.44816 2.39723,-8.76478 5.11133,-10.77149 2.7141,-2.00671 5.81071,-2.66211 6.92773,-2.66211 z"
       id="path11246" /></g><g
     inkscape:label="Camada 1"
     inkscape:groupmode="layer"
     id="layer1"
     style="display:inline"
     transform="translate(979.30273,-372.3457)"><ellipse
       style="fill:#003399;fill-opacity:1;stroke:none;stroke-width:0.264999;stroke-dasharray:none;stroke-opacity:1"
       id="ellipse11344"
       cx="-953.61987"
       cy="398.09055"
       rx="15.193922"
       ry="15.187474" /><g
       aria-label="½"
       transform="scale(1.0002122,0.99978784)"
       id="text11348"
       style="font-size:106.086px;font-family:'Cambria Math';-inkscape-font-specification:'Cambria Math';fill:#003399;stroke-width:0.264999"><path
         d="m -913.53497,494.22191 q -4.45562,1.80347 -13.57901,3.60693 l -1.37912,-5.51647 q 5.62256,-1.69738 10.07817,-3.60693 4.45561,-1.90955 8.48688,-4.98604 h 0.21217 l 5.41039,1.06086 v 47.42044 l 11.88163,1.06086 v 5.09213 h -34.69012 v -5.09213 l 13.57901,-1.06086 z m 60.78727,-14.10943 -38.29704,93.78002 -7.53211,-0.42435 38.50922,-93.99219 z m -6.25907,81.7923 q 5.09213,-3.07649 11.3512,-8.38079 6.36516,-5.3043 11.13903,-11.66946 4.87996,-6.36516 4.87996,-11.98772 0,-4.66778 -2.75824,-7.53211 -2.65215,-2.86432 -7.53211,-2.86432 -4.34952,0 -8.16862,1.90955 -3.71301,1.80346 -5.94081,4.03127 l -3.39476,-3.71301 q 2.43998,-3.18258 7.74428,-6.0469 5.41039,-2.97041 11.88163,-2.97041 8.48688,0 13.15467,4.13735 4.77387,4.13736 4.77387,11.03295 0,7.63819 -8.3808,17.07984 -8.2747,9.33557 -19.41373,16.01899 l 23.02066,-1.59129 3.92518,-7.95645 5.19821,1.06086 -2.65215,14.21552 h -37.02401 z"
         style="-inkscape-font-specification:Merriweather;stroke-width:0.265"
         id="path11757" /></g><ellipse
       style="fill:#003399;fill-opacity:1;stroke:none;stroke-width:0.264999;stroke-dasharray:none;stroke-opacity:1"
       id="ellipse11350"
       cx="792.74634"
       cy="-655.05939"
       transform="scale(-1)"
       rx="15.193922"
       ry="15.187474" /><g
       aria-label="½"
       transform="scale(1.0002122,0.99978784)"
       id="text11466"
       style="font-size:19.7556px;font-family:'Cambria Math';-inkscape-font-specification:'Cambria Math';fill:#ffffff;stroke-width:0.264999"><path
         d="m -960.96415,392.12982 q -0.82974,0.33585 -2.52872,0.67169 l -0.25682,-1.02729 q 1.04705,-0.31609 1.87678,-0.67169 0.82974,-0.3556 1.58045,-0.92851 h 0.0395 l 1.00754,0.19756 v 8.83075 l 2.21262,0.19756 v 0.94826 h -6.46008 v -0.94826 l 2.52872,-0.19756 z m 11.31996,-2.62749 -7.13177,17.46395 -1.40265,-0.079 7.17128,-17.50346 z m -1.16558,15.23157 q 0.94827,-0.57292 2.11385,-1.5607 1.18533,-0.98778 2.07433,-2.17311 0.90876,-1.18534 0.90876,-2.23238 0,-0.86925 -0.51364,-1.40265 -0.49389,-0.5334 -1.40265,-0.5334 -0.80998,0 -1.52118,0.3556 -0.69145,0.33584 -1.10632,0.75071 l -0.63218,-0.69145 q 0.45438,-0.59266 1.44216,-1.12606 1.00754,-0.55316 2.21263,-0.55316 1.58045,0 2.44969,0.77047 0.88901,0.77047 0.88901,2.05458 0,1.4224 -1.5607,3.18065 -1.54093,1.73849 -3.61527,2.9831 l 4.28696,-0.29634 0.73096,-1.48167 0.96803,0.19756 -0.49389,2.64725 h -6.89471 z"
         style="-inkscape-font-specification:Merriweather;stroke-width:0.265"
         id="path11557" /></g><g
       aria-label="½"
       transform="scale(1.0002122,0.99978784)"
       id="text11470"
       style="font-size:19.7556px;font-family:'Cambria Math';-inkscape-font-specification:'Cambria Math';fill:#ffffff;stroke-width:0.264999"><path
         d="m -800.1248,649.15317 q -0.82973,0.33585 -2.52871,0.67169 l -0.25683,-1.02729 q 1.04705,-0.31609 1.87679,-0.67169 0.82973,-0.3556 1.58044,-0.92851 h 0.0395 l 1.00753,0.19755 v 8.83076 l 2.21263,0.19755 v 0.94827 h -6.46008 v -0.94827 l 2.52871,-0.19755 z m 11.31996,-2.62749 -7.13177,17.46395 -1.40265,-0.079 7.17129,-17.50346 z m -1.16558,15.23156 q 0.94827,-0.57291 2.11385,-1.56069 1.18534,-0.98778 2.07434,-2.17312 0.90876,-1.18533 0.90876,-2.23238 0,-0.86924 -0.51365,-1.40265 -0.49389,-0.5334 -1.40265,-0.5334 -0.80998,0 -1.52118,0.3556 -0.69144,0.33585 -1.10631,0.75072 l -0.63218,-0.69145 q 0.45438,-0.59267 1.44216,-1.12607 1.00753,-0.55316 2.21263,-0.55316 1.58044,0 2.44969,0.77047 0.889,0.77047 0.889,2.05459 0,1.4224 -1.56069,3.18065 -1.54094,1.73849 -3.61527,2.98309 l 4.28696,-0.29633 0.73096,-1.48167 0.96802,0.19755 -0.49389,2.64726 h -6.8947 z"
         style="-inkscape-font-specification:Merriweather;stroke-width:0.265"
         id="path11552" /></g></g></svg>
