<?xml version="1.0" encoding="UTF-8" standalone="no"?>
<!-- Created with Inkscape (http://www.inkscape.org/) -->

<svg
   width="802.1604"
   height="1165.8292"
   viewBox="0 0 212.23828 308.45899"
   version="1.1"
   id="svg5"
   inkscape:version="1.2.1 (9c6d41e410, 2022-07-14)"
   sodipodi:docname="cartas.svg"
   inkscape:export-filename="cartacinco.svg"
   inkscape:export-xdpi="96"
   inkscape:export-ydpi="96"
   xml:space="preserve"
   xmlns:inkscape="http://www.inkscape.org/namespaces/inkscape"
   xmlns:sodipodi="http://sodipodi.sourceforge.net/DTD/sodipodi-0.dtd"
   xmlns="http://www.w3.org/2000/svg"
   xmlns:svg="http://www.w3.org/2000/svg"><sodipodi:namedview
     id="namedview7"
     pagecolor="#ffffff"
     bordercolor="#000000"
     borderopacity="0.25"
     inkscape:showpageshadow="2"
     inkscape:pageopacity="0.0"
     inkscape:pagecheckerboard="0"
     inkscape:deskcolor="#d1d1d1"
     inkscape:document-units="mm"
     showgrid="false"
     inkscape:zoom="0.093205495"
     inkscape:cx="5589.7992"
     inkscape:cy="-311.14045"
     inkscape:window-width="1920"
     inkscape:window-height="1017"
     inkscape:window-x="-8"
     inkscape:window-y="-8"
     inkscape:window-maximized="1"
     inkscape:current-layer="layer1"
     showguides="false"
     inkscape:lockguides="false" /><defs
     id="defs2" /><g
     inkscape:groupmode="layer"
     id="layer2"
     inkscape:label="Camada 2"
     transform="translate(-245.13281,-372.3457)"><g
       id="rect11252"><path
         style="color:#000000;fill:#ffffff;stroke-width:0.265;-inkscape-stroke:none"
         d="m 256.38273,372.47772 h 189.73871 c 6.15909,0 11.1175,5.61715 11.1175,12.5945 v 283.00556 c 0,6.97735 -4.95841,12.59449 -11.1175,12.59449 H 256.38273 c -6.1591,0 -11.1175,-5.61714 -11.1175,-12.59449 V 385.07222 c 0,-6.97735 4.9584,-12.5945 11.1175,-12.5945 z"
         id="path11906" /><path
         style="color:#000000;fill:#000000;-inkscape-stroke:none"
         d="m 256.38281,372.3457 c -6.23965,0 -11.25,5.68645 -11.25,12.72657 v 283.00585 c 0,7.04012 5.01035,12.72657 11.25,12.72657 h 189.73828 c 6.23965,0 11.25,-5.68645 11.25,-12.72657 V 385.07227 c 0,-7.04012 -5.01035,-12.72657 -11.25,-12.72657 z m 0,0.26367 h 189.73828 c 6.07853,0 10.98438,5.54833 10.98438,12.4629 v 283.00585 c 0,6.91457 -4.90585,12.46094 -10.98438,12.46094 H 256.38281 c -6.07853,0 -10.98437,-5.54637 -10.98437,-12.46094 V 385.07227 c 0,-6.91457 4.90584,-12.4629 10.98437,-12.4629 z"
         id="path11908" /></g><path
       style="color:#000000;fill:#003399;-inkscape-stroke:none"
       d="m 283.24023,397.65234 c -1.40258,0 -4.5251,0.69248 -7.40039,2.81836 -2.87528,2.12588 -5.4375,5.72834 -5.4375,11.41407 v 232.9414 c 0,5.88138 3.81797,10.66602 8.63086,10.66602 h 140.3125 c 7.20954,0 12.73242,-7.14983 12.73242,-14.26758 V 408.32227 c 0,-5.8812 -3.81577,-10.66993 -8.6289,-10.66993 z m 0,0.79883 h 140.20899 c 4.2779,0 7.82812,4.33386 7.82812,9.8711 v 232.90234 c 0,6.70172 -5.25672,13.46875 -11.93164,13.46875 H 279.0332 c -4.2781,0 -7.83007,-4.33009 -7.83008,-9.86719 v -232.9414 c 0,-5.44816 2.39723,-8.76478 5.11133,-10.77149 2.7141,-2.00671 5.80877,-2.66211 6.92578,-2.66211 z"
       id="path11254" /></g><g
     inkscape:label="Camada 1"
     inkscape:groupmode="layer"
     id="layer1"
     style="display:inline"
     transform="translate(-245.13281,-372.3457)"><ellipse
       style="fill:#003399;fill-opacity:1;stroke:none;stroke-width:0.264999;stroke-dasharray:none;stroke-opacity:1"
       id="ellipse11368"
       cx="270.81531"
       cy="398.09055"
       rx="15.193922"
       ry="15.187474" /><g
       aria-label="8"
       transform="scale(1.0002122,0.99978784)"
       id="text11372"
       style="font-size:106.086px;font-family:'Cambria Math';-inkscape-font-specification:'Cambria Math';fill:#003399;stroke-width:0.264999"><path
         d="m 324.27251,546.62838 q 0,-6.25908 4.03127,-11.56338 4.13735,-5.41038 12.30598,-9.01731 -6.25908,-4.03127 -9.65383,-8.48688 -3.39475,-4.5617 -3.39475,-11.3512 0,-6.25907 3.28866,-10.71468 3.39476,-4.5617 8.91123,-6.89559 5.51647,-2.3339 11.88163,-2.3339 10.29034,0 16.54942,4.77387 6.25907,4.77387 6.25907,12.73032 0,6.04691 -3.71301,11.24512 -3.60692,5.09213 -10.50251,8.91122 8.48688,4.77387 13.15466,9.65383 4.66778,4.87995 4.66778,12.0938 0,6.47125 -3.81909,11.3512 -3.71301,4.77387 -9.97209,7.42602 -6.25907,2.65215 -13.579,2.65215 -6.78951,0 -12.83641,-2.12172 -5.94082,-2.12172 -9.75991,-6.68341 -3.8191,-4.66779 -3.8191,-11.66946 z m 13.04858,-42.85875 q 0,3.8191 2.33389,6.78951 2.33389,2.9704 5.72865,5.09212 3.39475,2.12172 9.75991,5.51648 4.77387,-2.54607 7.5321,-6.47125 2.75824,-3.92518 2.75824,-8.48688 0,-7.00167 -3.8191,-10.92686 -3.81909,-4.03126 -10.29034,-4.03126 -5.83473,0 -9.97208,3.39475 -4.03127,3.39475 -4.03127,9.12339 z m 29.49191,44.13178 q 0,-3.8191 -2.22781,-6.68342 -2.2278,-2.97041 -5.62256,-5.09213 -3.28866,-2.12172 -9.12339,-5.09213 -2.97041,-1.4852 -4.45561,-2.33389 -4.98605,2.54607 -8.06254,6.78951 -3.07649,4.24344 -3.07649,9.12339 0,7.85037 4.56169,12.51815 4.66779,4.5617 12.62424,4.5617 3.81909,0 7.31993,-1.69738 3.60693,-1.69737 5.83473,-4.87995 2.22781,-3.18258 2.22781,-7.21385 z"
         style="-inkscape-font-specification:Merriweather;stroke-width:0.265"
         id="path11729" /></g><g
       aria-label="8"
       transform="scale(1.0002122,0.99978784)"
       id="text11376"
       style="font-size:22.5778px;font-family:'Cambria Math';-inkscape-font-specification:'Cambria Math';fill:#ffffff;stroke-width:0.185397"><path
         d="m 265.03439,402.41965 q 0,-1.33209 0.85796,-2.46098 0.88053,-1.15146 2.61902,-1.91911 -1.33209,-0.85796 -2.05458,-1.80622 -0.72249,-0.97085 -0.72249,-2.41583 0,-1.33209 0.69991,-2.28036 0.72249,-0.97084 1.89654,-1.46755 1.17405,-0.49671 2.52871,-0.49671 2.19005,0 3.52214,1.016 1.33209,1.016 1.33209,2.70933 0,1.28694 -0.79022,2.39325 -0.76765,1.08373 -2.23521,1.89653 1.80623,1.01601 2.79965,2.05458 0.99343,1.03858 0.99343,2.57387 0,1.37725 -0.81281,2.41583 -0.79022,1.016 -2.12231,1.58044 -1.33209,0.56445 -2.88996,0.56445 -1.44498,0 -2.73191,-0.45156 -1.26436,-0.45155 -2.07716,-1.4224 -0.8128,-0.99342 -0.8128,-2.48356 z m 2.77707,-9.12143 q 0,0.8128 0.49671,1.44498 0.49671,0.63218 1.2192,1.08374 0.72249,0.45155 2.07716,1.17404 1.016,-0.54187 1.60302,-1.37724 0.58703,-0.83538 0.58703,-1.80623 0,-1.49013 -0.8128,-2.32551 -0.8128,-0.85796 -2.19005,-0.85796 -1.24178,0 -2.12231,0.72249 -0.85796,0.72249 -0.85796,1.94169 z m 6.27663,9.39237 q 0,-0.8128 -0.47414,-1.4224 -0.47413,-0.63218 -1.19662,-1.08374 -0.69991,-0.45155 -1.94169,-1.08373 -0.63218,-0.31609 -0.94827,-0.49671 -1.06115,0.54186 -1.71591,1.44497 -0.65476,0.90312 -0.65476,1.9417 0,1.67075 0.97085,2.66418 0.99342,0.97084 2.68676,0.97084 0.8128,0 1.55787,-0.36124 0.76764,-0.36125 1.24177,-1.03858 0.47414,-0.67734 0.47414,-1.53529 z"
         style="-inkscape-font-specification:Merriweather"
         id="path11724" /></g><ellipse
       style="fill:#003399;fill-opacity:1;stroke:none;stroke-width:0.264999;stroke-dasharray:none;stroke-opacity:1"
       id="ellipse11378"
       cx="-431.68881"
       cy="-655.05939"
       transform="scale(-1)"
       rx="15.193922"
       ry="15.187474" /><g
       aria-label="8"
       transform="scale(1.0002122,0.99978784)"
       id="text11382"
       style="font-size:22.5778px;font-family:'Cambria Math';-inkscape-font-specification:'Cambria Math';fill:#ffffff;stroke-width:0.185397"><path
         d="m 425.87375,659.44303 q 0,-1.33209 0.85795,-2.46098 0.88054,-1.15147 2.61903,-1.91911 -1.33209,-0.85796 -2.05458,-1.80623 -0.72249,-0.97084 -0.72249,-2.41582 0,-1.33209 0.69991,-2.28036 0.72249,-0.97084 1.89653,-1.46756 1.17405,-0.49671 2.52872,-0.49671 2.19005,0 3.52214,1.016 1.33209,1.016 1.33209,2.70934 0,1.28693 -0.79023,2.39325 -0.76764,1.08373 -2.2352,1.89653 1.80622,1.016 2.79965,2.05458 0.99342,1.03858 0.99342,2.57387 0,1.37725 -0.8128,2.41583 -0.79022,1.016 -2.12231,1.58044 -1.33209,0.56445 -2.88996,0.56445 -1.44498,0 -2.73192,-0.45156 -1.26435,-0.45156 -2.07715,-1.4224 -0.8128,-0.99342 -0.8128,-2.48356 z m 2.77707,-9.12143 q 0,0.8128 0.49671,1.44498 0.49671,0.63218 1.2192,1.08373 0.72249,0.45156 2.07716,1.17405 1.016,-0.54187 1.60302,-1.37725 0.58702,-0.83538 0.58702,-1.80622 0,-1.49014 -0.8128,-2.32552 -0.8128,-0.85795 -2.19004,-0.85795 -1.24178,0 -2.12232,0.72249 -0.85795,0.72249 -0.85795,1.94169 z m 6.27662,9.39236 q 0,-0.8128 -0.47413,-1.4224 -0.47413,-0.63218 -1.19662,-1.08373 -0.69991,-0.45156 -1.94169,-1.08374 -0.63218,-0.31609 -0.94827,-0.49671 -1.06116,0.54187 -1.71591,1.44498 -0.65476,0.90311 -0.65476,1.94169 0,1.67076 0.97084,2.66418 0.99343,0.97085 2.68676,0.97085 0.8128,0 1.55787,-0.36125 0.76765,-0.36124 1.24178,-1.03858 0.47413,-0.67733 0.47413,-1.53529 z"
         style="-inkscape-font-specification:Merriweather"
         id="path11717" /></g></g></svg>
