<?xml version="1.0" encoding="UTF-8" standalone="no"?>
<!-- Created with Inkscape (http://www.inkscape.org/) -->

<svg
   width="802.1604"
   height="1165.8292"
   viewBox="0 0 212.23828 308.45899"
   version="1.1"
   id="svg5"
   inkscape:version="1.2.1 (9c6d41e410, 2022-07-14)"
   sodipodi:docname="cartas.svg"
   inkscape:export-filename="cartacinco.svg"
   inkscape:export-xdpi="96"
   inkscape:export-ydpi="96"
   xml:space="preserve"
   xmlns:inkscape="http://www.inkscape.org/namespaces/inkscape"
   xmlns:sodipodi="http://sodipodi.sourceforge.net/DTD/sodipodi-0.dtd"
   xmlns="http://www.w3.org/2000/svg"
   xmlns:svg="http://www.w3.org/2000/svg"><sodipodi:namedview
     id="namedview7"
     pagecolor="#ffffff"
     bordercolor="#000000"
     borderopacity="0.25"
     inkscape:showpageshadow="2"
     inkscape:pageopacity="0.0"
     inkscape:pagecheckerboard="0"
     inkscape:deskcolor="#d1d1d1"
     inkscape:document-units="mm"
     showgrid="false"
     inkscape:zoom="0.093205495"
     inkscape:cx="5589.7992"
     inkscape:cy="-311.14045"
     inkscape:window-width="1920"
     inkscape:window-height="1017"
     inkscape:window-x="-8"
     inkscape:window-y="-8"
     inkscape:window-maximized="1"
     inkscape:current-layer="layer1"
     showguides="false"
     inkscape:lockguides="false" /><defs
     id="defs2" /><g
     inkscape:groupmode="layer"
     id="layer2"
     inkscape:label="Camada 2"
     transform="translate(-971.76562,-372.3457)"><g
       id="rect11264"><path
         style="color:#000000;fill:#ffffff;stroke-width:0.265;-inkscape-stroke:none"
         d="m 983.01478,372.47772 h 189.73872 c 6.1591,0 11.1175,5.61715 11.1175,12.5945 v 283.00556 c 0,6.97735 -4.9584,12.59449 -11.1175,12.59449 H 983.01478 c -6.1591,0 -11.1175,-5.61714 -11.1175,-12.59449 V 385.07222 c 0,-6.97735 4.9584,-12.5945 11.1175,-12.5945 z"
         id="path11876" /><path
         style="color:#000000;fill:#000000;-inkscape-stroke:none"
         d="m 983.01562,372.3457 c -6.23965,0 -11.25,5.68645 -11.25,12.72657 v 283.00585 c 0,7.04012 5.01035,12.72657 11.25,12.72657 h 189.73828 c 6.2397,0 11.25,-5.68645 11.25,-12.72657 V 385.07227 c 0,-7.04012 -5.0103,-12.72657 -11.25,-12.72657 z m 0,0.26367 h 189.73828 c 6.0785,0 10.9844,5.54833 10.9844,12.4629 v 283.00585 c 0,6.91457 -4.9059,12.46094 -10.9844,12.46094 H 983.01562 c -6.07852,0 -10.98632,-5.54637 -10.98632,-12.46094 V 385.07227 c 0,-6.91457 4.9078,-12.4629 10.98632,-12.4629 z"
         id="path11878" /></g><path
       style="color:#000000;fill:#003399;-inkscape-stroke:none"
       d="m 1009.873,397.65234 c -1.4025,0 -4.527,0.69248 -7.4023,2.81836 -2.87528,2.12588 -5.43554,5.72834 -5.43554,11.41407 v 232.9414 c 0,5.88138 3.81794,10.66602 8.63084,10.66602 h 140.3106 c 7.2095,0 12.7324,-7.14983 12.7324,-14.26758 V 408.32227 c 0,-5.8812 -3.8139,-10.66993 -8.627,-10.66993 z m 0,0.79883 h 140.209 c 4.2779,0 7.8282,4.33386 7.8282,9.8711 v 232.90234 c 0,6.70172 -5.2588,13.46875 -11.9336,13.46875 H 1005.666 c -4.2781,0 -7.83202,-4.33009 -7.83202,-9.86719 v -232.9414 c 0,-5.44816 2.39922,-8.76478 5.11332,-10.77149 2.7141,-2.00671 5.8087,-2.66211 6.9257,-2.66211 z"
       id="path11266" /></g><g
     inkscape:label="Camada 1"
     inkscape:groupmode="layer"
     id="layer1"
     style="display:inline"
     transform="translate(-971.76562,-372.3457)"><ellipse
       style="fill:#003399;fill-opacity:1;stroke:none;stroke-width:0.264999;stroke-dasharray:none;stroke-opacity:1"
       id="ellipse11416"
       cx="997.44733"
       cy="398.09055"
       rx="15.193922"
       ry="15.187474" /><g
       aria-label="40"
       transform="scale(1.0002122,0.99978784)"
       id="text11420"
       style="font-size:106.086px;font-family:'Cambria Math';-inkscape-font-specification:'Cambria Math';fill:#003399;stroke-width:0.264999"><path
         d="m 1052.5539,554.2135 h -35.2206 l -2.7582,-4.77387 q 6.2591,-11.88163 15.3825,-31.40145 9.1233,-19.62591 16.3372,-35.96316 h 2.7582 l 8.4869,4.5617 -28.6432,55.16472 -4.2434,6.47125 27.9006,-1.48521 0.4243,-20.68677 9.0173,-0.7426 v 20.89894 l 14.9582,-0.7426 v 8.69905 h -14.9582 v 17.07985 h -9.4416 z"
         style="-inkscape-font-specification:Merriweather;stroke-width:0.265"
         id="path11644" /><path
         d="m 1112.5985,555.16827 q -13.5791,0 -20.3686,-9.33556 -6.6834,-9.44166 -6.6834,-24.2937 0,-10.39642 3.8191,-18.1407 3.8191,-7.85037 10.3964,-11.98772 6.5774,-4.13735 14.4277,-4.13735 13.7912,0 20.1564,8.91122 6.3651,8.80514 6.3651,24.18761 0,10.29034 -3.713,18.24679 -3.6069,7.85036 -10.0781,12.19989 -6.3652,4.34952 -14.3216,4.34952 z m 0.4243,-5.41038 q 15.8068,0 15.8068,-28.32496 0,-13.79118 -3.6069,-21.2172 -3.5009,-7.42602 -11.8816,-7.42602 -8.1687,0 -12.0938,7.10776 -3.9252,7.00168 -3.9252,20.15634 0,13.47292 3.713,21.64154 3.8191,8.06254 11.9877,8.06254 z"
         style="-inkscape-font-specification:Merriweather;stroke-width:0.265"
         id="path11646" /></g><g
       aria-label="40"
       transform="scale(1.0002122,0.99978784)"
       id="text11424"
       style="font-size:19.7556px;font-family:'Cambria Math';-inkscape-font-specification:'Cambria Math';fill:#ffffff;stroke-width:0.185397"><path
         d="m 992.56353,403.30161 h -6.55886 l -0.51364,-0.88901 q 1.16558,-2.21262 2.86456,-5.84765 1.69898,-3.65479 3.04236,-6.69715 h 0.51365 l 1.58045,0.84949 -5.33402,10.27291 -0.79022,1.20509 5.19572,-0.27658 0.079,-3.85234 1.67922,-0.13829 v 3.89186 l 2.78554,-0.13829 v 1.61996 h -2.78554 v 3.18065 h -1.75825 z"
         style="-inkscape-font-specification:Merriweather"
         id="path11635" /><path
         d="m 1003.7452,403.47941 q -2.5287,0 -3.79309,-1.7385 -1.2446,-1.75825 -1.2446,-4.52403 0,-1.93605 0.7112,-3.37821 0.71119,-1.46191 1.93609,-2.23238 1.2248,-0.77047 2.6867,-0.77047 2.5682,0 3.7536,1.65947 1.1853,1.63972 1.1853,4.50428 0,1.91629 -0.6914,3.39796 -0.6717,1.46192 -1.8768,2.2719 -1.1853,0.80998 -2.667,0.80998 z m 0.079,-1.00754 q 2.9436,0 2.9436,-5.27475 0,-2.56822 -0.6717,-3.95112 -0.6519,-1.38289 -2.2126,-1.38289 -1.5212,0 -2.2522,1.32363 -0.7309,1.30387 -0.7309,3.75356 0,2.50896 0.6914,4.03014 0.7112,1.50143 2.2324,1.50143 z"
         style="-inkscape-font-specification:Merriweather"
         id="path11637" /></g><ellipse
       style="fill:#003399;fill-opacity:1;stroke:none;stroke-width:0.264999;stroke-dasharray:none;stroke-opacity:1"
       id="ellipse11426"
       cx="-1158.3208"
       cy="-655.05939"
       transform="scale(-1)"
       rx="15.193922"
       ry="15.187474" /><g
       aria-label="40"
       transform="scale(1.0002122,0.99978784)"
       id="text11430"
       style="font-size:19.7556px;font-family:'Cambria Math';-inkscape-font-specification:'Cambria Math';fill:#ffffff;stroke-width:0.185397"><path
         d="m 1153.4029,660.32501 h -6.5588 l -0.5137,-0.889 q 1.1656,-2.21263 2.8646,-5.84766 1.699,-3.65478 3.0424,-6.69715 h 0.5136 l 1.5805,0.8495 -5.334,10.27291 -0.7903,1.20509 5.1957,-0.27658 0.079,-3.85234 1.6792,-0.13829 v 3.89185 l 2.7855,-0.13829 v 1.61996 h -2.7855 v 3.18065 h -1.7583 z"
         style="-inkscape-font-specification:Merriweather"
         id="path11624" /><path
         d="m 1164.5846,660.50281 q -2.5287,0 -3.7931,-1.73849 -1.2446,-1.75825 -1.2446,-4.52403 0,-1.93605 0.7112,-3.37821 0.7112,-1.46191 1.9361,-2.23238 1.2248,-0.77047 2.6867,-0.77047 2.5683,0 3.7536,1.65947 1.1853,1.63971 1.1853,4.50428 0,1.91629 -0.6914,3.39796 -0.6717,1.46191 -1.8768,2.27189 -1.1853,0.80998 -2.667,0.80998 z m 0.079,-1.00753 q 2.9436,0 2.9436,-5.27475 0,-2.56823 -0.6717,-3.95112 -0.6519,-1.38289 -2.2126,-1.38289 -1.5212,0 -2.2521,1.32363 -0.731,1.30386 -0.731,3.75356 0,2.50896 0.6914,4.03014 0.7112,1.50143 2.2324,1.50143 z"
         style="-inkscape-font-specification:Merriweather"
         id="path11626" /></g></g></svg>
