<?xml version="1.0" encoding="UTF-8" standalone="no"?>
<!-- Created with Inkscape (http://www.inkscape.org/) -->

<svg
   width="802.1604"
   height="1165.8292"
   viewBox="0 0 212.23828 308.45899"
   version="1.1"
   id="svg5"
   inkscape:version="1.2.1 (9c6d41e410, 2022-07-14)"
   sodipodi:docname="cartas.svg"
   inkscape:export-filename="cartacinco.svg"
   inkscape:export-xdpi="96"
   inkscape:export-ydpi="96"
   xml:space="preserve"
   xmlns:inkscape="http://www.inkscape.org/namespaces/inkscape"
   xmlns:sodipodi="http://sodipodi.sourceforge.net/DTD/sodipodi-0.dtd"
   xmlns="http://www.w3.org/2000/svg"
   xmlns:svg="http://www.w3.org/2000/svg"><sodipodi:namedview
     id="namedview7"
     pagecolor="#ffffff"
     bordercolor="#000000"
     borderopacity="0.25"
     inkscape:showpageshadow="2"
     inkscape:pageopacity="0.0"
     inkscape:pagecheckerboard="0"
     inkscape:deskcolor="#d1d1d1"
     inkscape:document-units="mm"
     showgrid="false"
     inkscape:zoom="0.093205495"
     inkscape:cx="5589.7992"
     inkscape:cy="-311.14045"
     inkscape:window-width="1920"
     inkscape:window-height="1017"
     inkscape:window-x="-8"
     inkscape:window-y="-8"
     inkscape:window-maximized="1"
     inkscape:current-layer="layer1"
     showguides="false"
     inkscape:lockguides="false" /><defs
     id="defs2" /><g
     inkscape:groupmode="layer"
     id="layer2"
     inkscape:label="Camada 2"
     transform="translate(254.67773,-372.3457)"><g
       id="rect11232"><path
         style="color:#000000;fill:#ffffff;stroke-width:0.265;-inkscape-stroke:none"
         d="m -243.4277,372.47772 h 189.738711 c 6.159096,0 11.117502,5.61715 11.117502,12.5945 v 283.00556 c 0,6.97735 -4.958406,12.59449 -11.117502,12.59449 H -243.4277 c -6.15909,0 -11.1175,-5.61714 -11.1175,-12.59449 V 385.07222 c 0,-6.97735 4.95841,-12.5945 11.1175,-12.5945 z"
         id="path11956" /><path
         style="color:#000000;fill:#000000;-inkscape-stroke:none"
         d="m -243.42773,372.3457 c -6.23965,0 -11.25,5.68645 -11.25,12.72657 v 283.00585 c 0,7.04012 5.01035,12.72657 11.25,12.72657 h 189.738277 c 6.23965,0 11.25,-5.68645 11.25,-12.72657 V 385.07227 c 0,-7.04012 -5.01035,-12.72657 -11.25,-12.72657 z m 0,0.26367 h 189.738277 c 6.078529,0 10.986328,5.54833 10.986328,12.4629 v 283.00585 c 0,6.91457 -4.907799,12.46094 -10.986328,12.46094 H -243.42773 c -6.07853,0 -10.98438,-5.54637 -10.98438,-12.46094 V 385.07227 c 0,-6.91457 4.90585,-12.4629 10.98438,-12.4629 z"
         id="path11958" /></g><path
       style="color:#000000;fill:#003399;-inkscape-stroke:none"
       d="m -216.57031,397.65234 c -1.40259,0 -4.52511,0.69248 -7.40039,2.81836 -2.87529,2.12588 -5.4375,5.72834 -5.4375,11.41407 v 232.9414 c 0,5.88138 3.81797,10.66602 8.63086,10.66602 h 140.312496 c 7.209532,0 12.732422,-7.14983 12.732422,-14.26758 V 408.32227 c 0,-5.8812 -3.815776,-10.66993 -8.628906,-10.66993 z m 0,0.79883 h 140.208982 c 4.277901,0 7.828125,4.33386 7.828125,9.8711 v 232.90234 c 0,6.70172 -5.256727,13.46875 -11.931641,13.46875 H -220.77734 c -4.27811,0 -7.83008,-4.33009 -7.83008,-9.86719 v -232.9414 c 0,-5.44816 2.39723,-8.76478 5.11133,-10.77149 2.7141,-2.00671 5.80876,-2.66211 6.92578,-2.66211 z"
       id="path11234" /></g><g
     inkscape:label="Camada 1"
     inkscape:groupmode="layer"
     id="layer1"
     style="display:inline"
     transform="translate(254.67773,-372.3457)"><ellipse
       style="fill:#003399;fill-opacity:1;stroke:none;stroke-width:0.264999;stroke-dasharray:none;stroke-opacity:1"
       id="ellipse11296"
       cx="-228.99512"
       cy="398.09055"
       rx="15.193922"
       ry="15.187474" /><g
       aria-label="3"
       transform="scale(1.0002122,0.99978784)"
       id="text11300"
       style="font-size:106.086px;font-family:'Cambria Math';-inkscape-font-specification:'Cambria Math';fill:#003399;stroke-width:0.264999"><path
         d="m -162.06505,568.74733 q -2.43998,0 -5.41038,-0.42435 -2.97041,-0.31826 -4.98605,-0.84869 v -6.0469 q 3.50084,1.06086 8.3808,1.06086 8.38079,0 14.42769,-2.65215 6.15299,-2.65215 9.33557,-7.21385 3.28867,-4.56169 3.28867,-9.97208 0,-7.21385 -4.45562,-11.13903 -4.34952,-4.03127 -13.47292,-4.13735 l -3.28866,0.84868 q -3.50084,1.06086 -3.39475,0.95478 l -1.80347,-5.62256 q 4.45562,-0.84869 8.3808,-2.54606 6.57733,-2.75824 10.6086,-7.31994 4.03126,-4.66778 4.03126,-9.86599 0,-6.04691 -3.60692,-8.80514 -3.50084,-2.86432 -9.01731,-2.86432 -4.77387,0 -9.22948,1.69737 -4.34953,1.69738 -7.53211,4.13736 l -2.86432,-4.77387 q 2.97041,-2.97041 9.44166,-5.72865 6.57733,-2.86432 13.36683,-2.86432 9.65383,0 15.59464,4.24344 5.94082,4.13735 5.94082,12.73032 0,7.53211 -5.94082,13.68509 -5.94081,6.15299 -14.10943,9.01731 1.06086,-0.10608 2.9704,-0.10608 6.25908,0 11.03295,2.33389 4.77387,2.33389 7.31993,6.36516 2.65215,3.92518 2.65215,8.91122 0,7.74428 -4.66778,13.89727 -4.66779,6.15299 -13.26075,9.54774 -8.48688,3.50084 -19.732,3.50084 z"
         style="-inkscape-font-specification:Merriweather;stroke-width:0.265"
         id="path11814" /></g><g
       aria-label="3"
       transform="scale(1.0002122,0.99978784)"
       id="text11304"
       style="font-size:22.5778px;font-family:'Cambria Math';-inkscape-font-specification:'Cambria Math';fill:#ffffff;stroke-width:0.185397"><path
         d="m -231.8252,407.12712 q -0.51929,0 -1.15147,-0.0903 -0.63218,-0.0677 -1.06116,-0.18062 v -1.28694 q 0.74507,0.22578 1.78365,0.22578 1.78364,0 3.07058,-0.56444 1.30951,-0.56445 1.98685,-1.53529 0.69991,-0.97085 0.69991,-2.12232 0,-1.53529 -0.94827,-2.37067 -0.92569,-0.85795 -2.86738,-0.88053 l -0.69991,0.18062 q -0.74507,0.22578 -0.72249,0.2032 l -0.38383,-1.19662 q 0.94827,-0.18062 1.78365,-0.54187 1.39982,-0.58702 2.25778,-1.55787 0.85796,-0.99342 0.85796,-2.09973 0,-1.28694 -0.76765,-1.87396 -0.74507,-0.6096 -1.91911,-0.6096 -1.016,0 -1.96427,0.36124 -0.92569,0.36125 -1.60302,0.88054 l -0.6096,-1.016 q 0.63217,-0.63218 2.00942,-1.2192 1.39982,-0.6096 2.8448,-0.6096 2.05458,0 3.31894,0.90311 1.26436,0.88053 1.26436,2.70933 0,1.60303 -1.26436,2.91254 -1.26436,1.30951 -3.00285,1.91911 0.22578,-0.0226 0.63218,-0.0226 1.33209,0 2.34809,0.49671 1.016,0.49671 1.55787,1.35467 0.56445,0.83537 0.56445,1.89653 0,1.64818 -0.99343,2.95769 -0.99342,1.30951 -2.82222,2.032 -1.80623,0.74507 -4.19947,0.74507 z"
         style="-inkscape-font-specification:Merriweather"
         id="path11809" /></g><ellipse
       style="fill:#003399;fill-opacity:1;stroke:none;stroke-width:0.264999;stroke-dasharray:none;stroke-opacity:1"
       id="ellipse11306"
       cx="68.121613"
       cy="-655.05939"
       transform="scale(-1)"
       rx="15.193922"
       ry="15.187474" /><g
       aria-label="3"
       transform="scale(1.0002122,0.99978784)"
       id="text11310"
       style="font-size:22.5778px;font-family:'Cambria Math';-inkscape-font-specification:'Cambria Math';fill:#ffffff;stroke-width:0.185397"><path
         d="m -70.985826,664.15053 q -0.519289,0 -1.151468,-0.0903 -0.632178,-0.0677 -1.061156,-0.18062 v -1.28694 q 0.745067,0.22578 1.783646,0.22578 1.783646,0 3.070581,-0.56445 1.309512,-0.56444 1.986846,-1.53529 0.699912,-0.97084 0.699912,-2.12231 0,-1.53529 -0.948267,-2.37067 -0.92569,-0.85796 -2.867381,-0.88053 l -0.699912,0.18062 q -0.745067,0.22578 -0.72249,0.2032 l -0.383822,-1.19662 q 0.948267,-0.18063 1.783646,-0.54187 1.399824,-0.58702 2.25778,-1.55787 0.857957,-0.99342 0.857957,-2.09974 0,-1.28693 -0.767646,-1.87395 -0.745067,-0.6096 -1.919113,-0.6096 -1.016001,0 -1.964268,0.36124 -0.92569,0.36125 -1.603024,0.88054 l -0.609601,-1.01601 q 0.632179,-0.63217 2.009424,-1.2192 1.399824,-0.6096 2.844803,-0.6096 2.05458,0 3.318937,0.90311 1.264357,0.88054 1.264357,2.70934 0,1.60302 -1.264357,2.91254 -1.264357,1.30951 -3.002847,1.91911 0.225778,-0.0226 0.632178,-0.0226 1.33209,0 2.348091,0.49671 1.016001,0.49672 1.557868,1.35467 0.564446,0.83538 0.564446,1.89654 0,1.64818 -0.993424,2.95769 -0.993423,1.30951 -2.822225,2.032 -1.806224,0.74507 -4.199471,0.74507 z"
         style="-inkscape-font-specification:Merriweather"
         id="path11802" /></g></g></svg>
