<?xml version="1.0" encoding="UTF-8" standalone="no"?>
<!-- Created with Inkscape (http://www.inkscape.org/) -->

<svg
   width="802.1604"
   height="1165.8292"
   viewBox="0 0 212.23828 308.45899"
   version="1.1"
   id="svg5"
   inkscape:version="1.2.1 (9c6d41e410, 2022-07-14)"
   sodipodi:docname="cartas.svg"
   inkscape:export-filename="cartacinco.svg"
   inkscape:export-xdpi="96"
   inkscape:export-ydpi="96"
   xml:space="preserve"
   xmlns:inkscape="http://www.inkscape.org/namespaces/inkscape"
   xmlns:sodipodi="http://sodipodi.sourceforge.net/DTD/sodipodi-0.dtd"
   xmlns="http://www.w3.org/2000/svg"
   xmlns:svg="http://www.w3.org/2000/svg"><sodipodi:namedview
     id="namedview7"
     pagecolor="#ffffff"
     bordercolor="#000000"
     borderopacity="0.25"
     inkscape:showpageshadow="2"
     inkscape:pageopacity="0.0"
     inkscape:pagecheckerboard="0"
     inkscape:deskcolor="#d1d1d1"
     inkscape:document-units="mm"
     showgrid="false"
     inkscape:zoom="0.093205495"
     inkscape:cx="5589.7992"
     inkscape:cy="-311.14045"
     inkscape:window-width="1920"
     inkscape:window-height="1017"
     inkscape:window-x="-8"
     inkscape:window-y="-8"
     inkscape:window-maximized="1"
     inkscape:current-layer="layer1"
     showguides="false"
     inkscape:lockguides="false" /><defs
     id="defs2" /><g
     inkscape:groupmode="layer"
     id="layer2"
     inkscape:label="Camada 2"
     transform="translate(-494.03516,-372.3457)"><g
       id="rect11256"><path
         style="color:#000000;fill:#ffffff;stroke-width:0.265;-inkscape-stroke:none"
         d="m 505.28431,372.47772 h 189.73871 c 6.15909,0 11.1175,5.61715 11.1175,12.5945 v 283.00556 c 0,6.97735 -4.95841,12.59449 -11.1175,12.59449 H 505.28431 c -6.1591,0 -11.1175,-5.61714 -11.1175,-12.59449 V 385.07222 c 0,-6.97735 4.9584,-12.5945 11.1175,-12.5945 z"
         id="path11896" /><path
         style="color:#000000;fill:#000000;-inkscape-stroke:none"
         d="m 505.28516,372.3457 c -6.23965,0 -11.25,5.68645 -11.25,12.72657 v 283.00585 c 0,7.04012 5.01035,12.72657 11.25,12.72657 h 189.73828 c 6.23965,0 11.25,-5.68645 11.25,-12.72657 V 385.07227 c 0,-7.04012 -5.01035,-12.72657 -11.25,-12.72657 z m 0,0.26367 h 189.73828 c 6.07853,0 10.98437,5.54833 10.98437,12.4629 v 283.00585 c 0,6.91457 -4.90584,12.46094 -10.98437,12.46094 H 505.28516 c -6.07853,0 -10.98633,-5.54637 -10.98633,-12.46094 V 385.07227 c 0,-6.91457 4.9078,-12.4629 10.98633,-12.4629 z"
         id="path11898" /></g><path
       style="color:#000000;fill:#003399;-inkscape-stroke:none"
       d="m 532.14258,397.65234 c -1.40259,0 -4.52706,0.69248 -7.40235,2.81836 -2.87528,2.12588 -5.43554,5.72834 -5.43554,11.41407 v 232.9414 c 0,5.88138 3.81797,10.66602 8.63086,10.66602 h 140.31054 c 7.20954,0 12.73243,-7.14983 12.73243,-14.26758 V 408.32227 c 0,-5.8812 -3.81383,-10.66993 -8.62696,-10.66993 z m 0,0.79883 h 140.20898 c 4.2779,0 7.82813,4.33386 7.82813,9.8711 v 232.90234 c 0,6.70172 -5.25868,13.46875 -11.9336,13.46875 H 527.93555 c -4.2781,0 -7.83203,-4.33009 -7.83203,-9.86719 v -232.9414 c 0,-5.44816 2.39918,-8.76478 5.11328,-10.77149 2.7141,-2.00671 5.80876,-2.66211 6.92578,-2.66211 z"
       id="path11258" /></g><g
     inkscape:label="Camada 1"
     inkscape:groupmode="layer"
     id="layer1"
     style="display:inline"
     transform="translate(-494.03516,-372.3457)"><ellipse
       style="fill:#003399;fill-opacity:1;stroke:none;stroke-width:0.264999;stroke-dasharray:none;stroke-opacity:1"
       id="ellipse11384"
       cx="519.71686"
       cy="398.09055"
       rx="15.193922"
       ry="15.187474" /><g
       aria-label="13"
       transform="scale(1.0002122,0.99978784)"
       id="text11388"
       style="font-size:106.086px;font-family:'Cambria Math';-inkscape-font-specification:'Cambria Math';fill:#003399;stroke-width:0.264999"><path
         d="m 567.39259,496.92711 q -2.2278,0.84868 -7.00167,2.01563 -4.77387,1.16695 -7.74428,1.59129 l -1.06086,-5.94082 q 5.41039,-1.16694 11.03294,-3.92518 5.72865,-2.75823 9.54774,-6.0469 h 0.10609 l 6.47124,1.06086 v 59.8325 l 13.15467,0.95478 v 5.19821 H 553.7075 v -5.19821 l 13.68509,-0.95478 z"
         style="-inkscape-font-specification:Merriweather;stroke-width:0.265"
         id="path11706" /><path
         d="m 610.78182,568.74733 q -2.43998,0 -5.41038,-0.42435 -2.97041,-0.31826 -4.98605,-0.84869 v -6.0469 q 3.50084,1.06086 8.3808,1.06086 8.38079,0 14.42769,-2.65215 6.15299,-2.65215 9.33557,-7.21385 3.28867,-4.56169 3.28867,-9.97208 0,-7.21385 -4.45561,-11.13903 -4.34953,-4.03127 -13.47293,-4.13735 l -3.28866,0.84868 q -3.50084,1.06086 -3.39475,0.95478 l -1.80347,-5.62256 q 4.45562,-0.84869 8.3808,-2.54606 6.57733,-2.75824 10.6086,-7.31994 4.03127,-4.66778 4.03127,-9.86599 0,-6.04691 -3.60693,-8.80514 -3.50084,-2.86432 -9.01731,-2.86432 -4.77387,0 -9.22948,1.69737 -4.34953,1.69738 -7.53211,4.13736 l -2.86432,-4.77387 q 2.97041,-2.97041 9.44166,-5.72865 6.57733,-2.86432 13.36683,-2.86432 9.65383,0 15.59464,4.24344 5.94082,4.13735 5.94082,12.73032 0,7.53211 -5.94082,13.68509 -5.94081,6.15299 -14.10943,9.01731 1.06086,-0.10608 2.9704,-0.10608 6.25908,0 11.03295,2.33389 4.77387,2.33389 7.31993,6.36516 2.65215,3.92518 2.65215,8.91122 0,7.74428 -4.66778,13.89727 -4.66779,6.15299 -13.26075,9.54774 -8.48688,3.50084 -19.732,3.50084 z"
         style="-inkscape-font-specification:Merriweather;stroke-width:0.265"
         id="path11708" /></g><g
       aria-label="13"
       transform="scale(1.0002122,0.99978784)"
       id="text11392"
       style="font-size:19.7556px;font-family:'Cambria Math';-inkscape-font-specification:'Cambria Math';fill:#ffffff;stroke-width:0.185397"><path
         d="m 513.53177,392.63359 q -0.41487,0.15805 -1.30387,0.37536 -0.889,0.21731 -1.44216,0.29633 l -0.19755,-1.10631 q 1.00753,-0.21731 2.05458,-0.73096 1.0668,-0.51364 1.778,-1.12607 h 0.0198 l 1.20509,0.19756 v 11.14216 l 2.44969,0.1778 v 0.96802 h -7.11201 v -0.96802 l 2.54847,-0.1778 z"
         style="-inkscape-font-specification:Merriweather"
         id="path11697" /><path
         d="m 521.61182,406.00814 q -0.45438,0 -1.00753,-0.079 -0.55316,-0.0593 -0.92852,-0.15804 v -1.1261 q 0.65194,0.19756 1.5607,0.19756 1.56069,0 2.68676,-0.49389 1.14582,-0.49389 1.73849,-1.34339 0.61242,-0.84949 0.61242,-1.85702 0,-1.34338 -0.82973,-2.07434 -0.80998,-0.75071 -2.50896,-0.77047 l -0.61243,0.15805 q -0.65193,0.19755 -0.63218,0.1778 l -0.33584,-1.04705 q 0.82973,-0.15804 1.56069,-0.47413 1.22485,-0.51365 1.97556,-1.36314 0.75071,-0.86925 0.75071,-1.83727 0,-1.12607 -0.67169,-1.63972 -0.65193,-0.5334 -1.67922,-0.5334 -0.889,0 -1.71874,0.31609 -0.80998,0.31609 -1.40265,0.77047 l -0.5334,-0.889 q 0.55316,-0.55316 1.75825,-1.0668 1.22485,-0.53341 2.48921,-0.53341 1.79776,0 2.90407,0.79023 1.10631,0.77047 1.10631,2.37067 0,1.40265 -1.10631,2.54847 -1.10631,1.14583 -2.6275,1.67923 0.19756,-0.0198 0.55316,-0.0198 1.16558,0 2.05458,0.43463 0.88901,0.43462 1.36314,1.18533 0.49389,0.73096 0.49389,1.65947 0,1.44216 -0.86925,2.58799 -0.86924,1.14582 -2.46945,1.778 -1.58044,0.65194 -3.67454,0.65194 z"
         style="-inkscape-font-specification:Merriweather"
         id="path11699" /></g><ellipse
       style="fill:#003399;fill-opacity:1;stroke:none;stroke-width:0.264999;stroke-dasharray:none;stroke-opacity:1"
       id="ellipse11394"
       cx="-680.59039"
       cy="-655.05939"
       transform="scale(-1)"
       rx="15.193922"
       ry="15.187474" /><g
       aria-label="13"
       transform="scale(1.0002122,0.99978784)"
       id="text11398"
       style="font-size:19.7556px;font-family:'Cambria Math';-inkscape-font-specification:'Cambria Math';fill:#ffffff;stroke-width:0.185397"><path
         d="m 674.37116,649.65694 q -0.41487,0.15805 -1.30387,0.37536 -0.889,0.21731 -1.44216,0.29633 l -0.19756,-1.10631 q 1.00754,-0.21731 2.05459,-0.73096 1.0668,-0.51365 1.778,-1.12607 h 0.0197 l 1.2051,0.19756 v 11.14216 l 2.44969,0.1778 v 0.96802 h -7.11202 v -0.96802 l 2.54848,-0.1778 z"
         style="-inkscape-font-specification:Merriweather"
         id="path11686" /><path
         d="m 682.45121,663.03148 q -0.45438,0 -1.00754,-0.079 -0.55315,-0.0593 -0.92851,-0.15805 v -1.12606 q 0.65193,0.19755 1.56069,0.19755 1.56069,0 2.68676,-0.49389 1.14583,-0.49389 1.7385,-1.34338 0.61242,-0.84949 0.61242,-1.85703 0,-1.34338 -0.82974,-2.07433 -0.80998,-0.75072 -2.50896,-0.77047 l -0.61242,0.15804 q -0.65194,0.19756 -0.63218,0.1778 l -0.33584,-1.04704 q 0.82973,-0.15805 1.56069,-0.47414 1.22484,-0.51364 1.97556,-1.36313 0.75071,-0.86925 0.75071,-1.83728 0,-1.12606 -0.67169,-1.63971 -0.65193,-0.5334 -1.67923,-0.5334 -0.889,0 -1.71873,0.31609 -0.80998,0.31609 -1.40265,0.77047 l -0.5334,-0.88901 q 0.55315,-0.55315 1.75825,-1.0668 1.22484,-0.5334 2.4892,-0.5334 1.79776,0 2.90408,0.79022 1.10631,0.77047 1.10631,2.37068 0,1.40264 -1.10631,2.54847 -1.10632,1.14582 -2.6275,1.67923 0.19756,-0.0198 0.55316,-0.0198 1.16558,0 2.05458,0.43462 0.889,0.43463 1.36314,1.18534 0.49389,0.73096 0.49389,1.65947 0,1.44216 -0.86925,2.58798 -0.86925,1.14583 -2.46945,1.77801 -1.58045,0.65193 -3.67454,0.65193 z"
         style="-inkscape-font-specification:Merriweather"
         id="path11688" /></g></g></svg>
