<?xml version="1.0" encoding="UTF-8" standalone="no"?>
<!-- Created with Inkscape (http://www.inkscape.org/) -->

<svg
   width="802.1604"
   height="1165.8292"
   viewBox="0 0 212.23828 308.45899"
   version="1.1"
   id="svg5"
   inkscape:version="1.2.1 (9c6d41e410, 2022-07-14)"
   sodipodi:docname="cartas.svg"
   inkscape:export-filename="cartacinco.svg"
   inkscape:export-xdpi="96"
   inkscape:export-ydpi="96"
   xml:space="preserve"
   xmlns:inkscape="http://www.inkscape.org/namespaces/inkscape"
   xmlns:sodipodi="http://sodipodi.sourceforge.net/DTD/sodipodi-0.dtd"
   xmlns="http://www.w3.org/2000/svg"
   xmlns:svg="http://www.w3.org/2000/svg"><sodipodi:namedview
     id="namedview7"
     pagecolor="#ffffff"
     bordercolor="#000000"
     borderopacity="0.25"
     inkscape:showpageshadow="2"
     inkscape:pageopacity="0.0"
     inkscape:pagecheckerboard="0"
     inkscape:deskcolor="#d1d1d1"
     inkscape:document-units="mm"
     showgrid="false"
     inkscape:zoom="0.093205495"
     inkscape:cx="5589.7992"
     inkscape:cy="-311.14045"
     inkscape:window-width="1920"
     inkscape:window-height="1017"
     inkscape:window-x="-8"
     inkscape:window-y="-8"
     inkscape:window-maximized="1"
     inkscape:current-layer="layer1"
     showguides="false"
     inkscape:lockguides="false" /><defs
     id="defs2" /><g
     inkscape:groupmode="layer"
     id="layer2"
     inkscape:label="Camada 2"
     transform="translate(752.48047,-372.3457)"><g
       id="rect11240"><path
         style="color:#000000;fill:#ffffff;stroke-width:0.265;-inkscape-stroke:none"
         d="m -741.23083,372.47772 h 189.73871 c 6.1591,0 11.1175,5.61715 11.1175,12.5945 v 283.00556 c 0,6.97735 -4.9584,12.59449 -11.1175,12.59449 h -189.73871 c -6.15909,0 -11.1175,-5.61714 -11.1175,-12.59449 V 385.07222 c 0,-6.97735 4.95841,-12.5945 11.1175,-12.5945 z"
         id="path11936" /><path
         style="color:#000000;fill:#000000;-inkscape-stroke:none"
         d="m -741.23047,372.3457 c -6.23965,0 -11.25,5.68645 -11.25,12.72657 v 283.00585 c 0,7.04012 5.01035,12.72657 11.25,12.72657 h 189.73828 c 6.23965,0 11.25,-5.68645 11.25,-12.72657 V 385.07227 c 0,-7.04012 -5.01035,-12.72657 -11.25,-12.72657 z m 0,0.26367 h 189.73828 c 6.07853,0 10.98438,5.54833 10.98438,12.4629 v 283.00585 c 0,6.91457 -4.90585,12.46094 -10.98438,12.46094 h -189.73828 c -6.07853,0 -10.98633,-5.54637 -10.98633,-12.46094 V 385.07227 c 0,-6.91457 4.9078,-12.4629 10.98633,-12.4629 z"
         id="path11938" /></g><path
       style="color:#000000;fill:#003399;-inkscape-stroke:none"
       d="m -714.37305,397.65234 c -1.40259,0 -4.52706,0.69248 -7.40234,2.81836 -2.87528,2.12588 -5.43555,5.72834 -5.43555,11.41407 v 232.9414 c 0,5.88138 3.81797,10.66602 8.63086,10.66602 h 140.31055 c 7.20953,0 12.73242,-7.14983 12.73242,-14.26758 V 408.32227 c 0,-5.8812 -3.81382,-10.66993 -8.62695,-10.66993 z m 0,0.79883 h 140.20899 c 4.2779,0 7.82812,4.33386 7.82812,9.8711 v 232.90234 c 0,6.70172 -5.25868,13.46875 -11.93359,13.46875 h -140.31055 c -4.2781,0 -7.83203,-4.33009 -7.83203,-9.86719 v -232.9414 c 0,-5.44816 2.39918,-8.76478 5.11328,-10.77149 2.7141,-2.00671 5.80877,-2.66211 6.92578,-2.66211 z"
       id="path11242" /></g><g
     inkscape:label="Camada 1"
     inkscape:groupmode="layer"
     id="layer1"
     style="display:inline"
     transform="translate(752.48047,-372.3457)"><ellipse
       style="fill:#003399;fill-opacity:1;stroke:none;stroke-width:0.264999;stroke-dasharray:none;stroke-opacity:1"
       id="ellipse11328"
       cx="-726.79828"
       cy="398.09055"
       rx="15.193922"
       ry="15.187474" /><g
       aria-label="1"
       transform="scale(1.0002122,0.99978784)"
       id="text11332"
       style="font-size:106.086px;font-family:'Cambria Math';-inkscape-font-specification:'Cambria Math';fill:#003399;stroke-width:0.264999"><path
         d="m -650.58617,505.46702 q -2.2278,0.84869 -7.00167,2.01564 -4.77387,1.16694 -7.74428,1.59129 l -1.06086,-5.94082 q 5.41039,-1.16695 11.03294,-3.92518 5.72865,-2.75824 9.54774,-6.0469 h 0.10609 l 6.47125,1.06086 v 59.8325 l 13.15466,0.95477 v 5.19822 h -38.19096 v -5.19822 l 13.68509,-0.95477 z"
         style="-inkscape-font-specification:Merriweather;stroke-width:0.265"
         id="path11776" /></g><g
       aria-label="1"
       transform="scale(1.0002122,0.99978784)"
       id="text11336"
       style="font-size:25.4px;font-family:'Cambria Math';-inkscape-font-specification:'Cambria Math';fill:#ffffff;stroke-width:0.185397"><path
         d="m -727.68549,393.09505 q -0.5334,0.2032 -1.6764,0.4826 -1.143,0.2794 -1.8542,0.381 l -0.254,-1.4224 q 1.2954,-0.2794 2.6416,-0.9398 1.3716,-0.6604 2.286,-1.4478 h 0.0254 l 1.5494,0.254 v 14.3256 l 3.1496,0.2286 v 1.2446 h -9.144 v -1.2446 l 3.2766,-0.2286 z"
         style="-inkscape-font-specification:Merriweather"
         id="path11771" /></g><ellipse
       style="fill:#003399;fill-opacity:1;stroke:none;stroke-width:0.264999;stroke-dasharray:none;stroke-opacity:1"
       id="ellipse11338"
       cx="565.92474"
       cy="-655.05939"
       transform="scale(-1)"
       rx="15.193922"
       ry="15.187474" /><g
       aria-label="1"
       transform="scale(1.0002122,0.99978784)"
       id="text11342"
       style="font-size:25.4px;font-family:'Cambria Math';-inkscape-font-specification:'Cambria Math';fill:#ffffff;stroke-width:0.185397"><path
         d="m -566.84608,650.11839 q -0.5334,0.2032 -1.6764,0.4826 -1.143,0.2794 -1.8542,0.381 l -0.254,-1.4224 q 1.2954,-0.2794 2.6416,-0.9398 1.3716,-0.6604 2.286,-1.4478 h 0.0254 l 1.5494,0.254 v 14.3256 l 3.1496,0.2286 v 1.2446 h -9.144 v -1.2446 l 3.2766,-0.2286 z"
         style="-inkscape-font-specification:Merriweather"
         id="path11764" /></g></g></svg>
