<?xml version="1.0" encoding="UTF-8" standalone="no"?>
<!-- Created with Inkscape (http://www.inkscape.org/) -->

<svg
   width="802.16779"
   height="1165.8292"
   viewBox="0 0 212.24023 308.45899"
   version="1.1"
   id="svg5"
   inkscape:version="1.2.1 (9c6d41e410, 2022-07-14)"
   sodipodi:docname="cartas.svg"
   inkscape:export-filename="cartacinco.svg"
   inkscape:export-xdpi="96"
   inkscape:export-ydpi="96"
   xml:space="preserve"
   xmlns:inkscape="http://www.inkscape.org/namespaces/inkscape"
   xmlns:sodipodi="http://sodipodi.sourceforge.net/DTD/sodipodi-0.dtd"
   xmlns="http://www.w3.org/2000/svg"
   xmlns:svg="http://www.w3.org/2000/svg"><sodipodi:namedview
     id="namedview7"
     pagecolor="#ffffff"
     bordercolor="#000000"
     borderopacity="0.25"
     inkscape:showpageshadow="2"
     inkscape:pageopacity="0.0"
     inkscape:pagecheckerboard="0"
     inkscape:deskcolor="#d1d1d1"
     inkscape:document-units="mm"
     showgrid="false"
     inkscape:zoom="0.093205495"
     inkscape:cx="5589.7992"
     inkscape:cy="-311.14045"
     inkscape:window-width="1920"
     inkscape:window-height="1017"
     inkscape:window-x="-8"
     inkscape:window-y="-8"
     inkscape:window-maximized="1"
     inkscape:current-layer="layer1"
     showguides="false"
     inkscape:lockguides="false" /><defs
     id="defs2" /><g
     inkscape:groupmode="layer"
     id="layer2"
     inkscape:label="Camada 2"
     transform="translate(-734.90625,-372.3457)"><g
       id="rect11260"><path
         style="color:#000000;fill:#ffffff;stroke-width:0.265;-inkscape-stroke:none"
         d="m 746.15681,372.47772 h 189.7387 c 6.1591,0 11.11751,5.61715 11.11751,12.5945 v 283.00556 c 0,6.97735 -4.95841,12.59449 -11.11751,12.59449 h -189.7387 c -6.1591,0 -11.1175,-5.61714 -11.1175,-12.59449 V 385.07222 c 0,-6.97735 4.9584,-12.5945 11.1175,-12.5945 z"
         id="path11886" /><path
         style="color:#000000;fill:#000000;-inkscape-stroke:none"
         d="m 746.15625,372.3457 c -6.23965,0 -11.25,5.68645 -11.25,12.72657 v 283.00585 c 0,7.04012 5.01035,12.72657 11.25,12.72657 h 189.74023 c 6.23965,0 11.25,-5.68645 11.25,-12.72657 V 385.07227 c 0,-7.04012 -5.01035,-12.72657 -11.25,-12.72657 z m 0,0.26367 h 189.74023 c 6.07853,0 10.98438,5.54833 10.98438,12.4629 v 283.00585 c 0,6.91457 -4.90585,12.46094 -10.98438,12.46094 H 746.15625 c -6.07853,0 -10.98438,-5.54637 -10.98438,-12.46094 V 385.07227 c 0,-6.91457 4.90585,-12.4629 10.98438,-12.4629 z"
         id="path11888" /></g><path
       style="color:#000000;fill:#003399;-inkscape-stroke:none"
       d="m 773.01562,397.65234 c -1.40258,0 -4.52706,0.69248 -7.40234,2.81836 -2.87528,2.12588 -5.4375,5.72834 -5.4375,11.41407 v 232.9414 c 0,5.88138 3.81797,10.66602 8.63086,10.66602 h 140.3125 c 7.20953,0 12.73242,-7.14983 12.73242,-14.26758 V 408.32227 c 0,-5.8812 -3.81382,-10.66993 -8.62695,-10.66993 z m 0,0.79883 h 140.20899 c 4.2779,0 7.82617,4.33386 7.82617,9.8711 v 232.90234 c 0,6.70172 -5.25673,13.46875 -11.93164,13.46875 h -140.3125 c -4.2781,0 -7.83008,-4.33009 -7.83008,-9.86719 v -232.9414 c 0,-5.44816 2.39723,-8.76478 5.11133,-10.77149 2.7141,-2.00671 5.81072,-2.66211 6.92773,-2.66211 z"
       id="path11262" /></g><g
     inkscape:label="Camada 1"
     inkscape:groupmode="layer"
     id="layer1"
     style="display:inline"
     transform="translate(-734.90625,-372.3457)"><ellipse
       style="fill:#003399;fill-opacity:1;stroke:none;stroke-width:0.264999;stroke-dasharray:none;stroke-opacity:1"
       id="ellipse11400"
       cx="760.58936"
       cy="398.09055"
       rx="15.193922"
       ry="15.187474" /><g
       aria-label="20"
       transform="scale(1.0002122,0.99978784)"
       id="text11404"
       style="font-size:106.086px;font-family:'Cambria Math';-inkscape-font-specification:'Cambria Math';fill:#003399;stroke-width:0.264999"><path
         d="m 780.73775,555.27437 q 9.75991,-5.51647 17.92853,-12.62424 8.16863,-7.21384 12.9425,-14.85204 4.87995,-7.63819 4.87995,-14.42769 0,-5.83473 -3.50084,-9.22948 -3.50083,-3.50084 -9.97208,-3.50084 -6.0469,0 -10.39643,2.43998 -4.34952,2.33389 -8.06253,5.83473 l -3.39476,-4.77387 q 3.71301,-4.34953 10.6086,-7.85037 6.89559,-3.60692 14.74596,-3.60692 7.42602,0 12.51815,2.75824 5.09212,2.65215 7.5321,7.00167 2.43998,4.34953 2.43998,9.54774 0,10.50251 -10.07817,21.64154 -10.07817,11.03295 -25.24847,19.83809 l 32.88666,-2.43998 3.71301,-9.1234 5.41039,1.06086 -2.75824,16.76159 h -50.60302 z"
         style="-inkscape-font-specification:Merriweather;stroke-width:0.265"
         id="path11675" /><path
         d="m 872.82035,560.68475 q -13.57901,0 -20.36851,-9.33556 -6.68342,-9.44166 -6.68342,-24.2937 0,-10.39642 3.8191,-18.1407 3.81909,-7.85037 10.39643,-11.98772 6.57733,-4.13735 14.42769,-4.13735 13.79118,0 20.15634,8.91122 6.36516,8.80514 6.36516,24.18761 0,10.29034 -3.71301,18.24679 -3.60692,7.85036 -10.07817,12.19989 -6.36516,4.34952 -14.32161,4.34952 z m 0.42435,-5.41038 q 15.80681,0 15.80681,-28.32496 0,-13.79118 -3.60693,-21.2172 -3.50083,-7.42602 -11.88163,-7.42602 -8.16862,0 -12.0938,7.10776 -3.92518,7.00168 -3.92518,20.15634 0,13.47292 3.71301,21.64154 3.81909,8.06254 11.98772,8.06254 z"
         style="-inkscape-font-specification:Merriweather;stroke-width:0.265"
         id="path11677" /></g><g
       aria-label="20"
       transform="scale(1.0002122,0.99978784)"
       id="text11408"
       style="font-size:19.7556px;font-family:'Cambria Math';-inkscape-font-specification:'Cambria Math';fill:#ffffff;stroke-width:0.185397"><path
         d="m 749.2365,403.49915 q 1.81751,-1.02729 3.33869,-2.35091 1.52118,-1.34338 2.41019,-2.76579 0.90875,-1.4224 0.90875,-2.68676 0,-1.08656 -0.65193,-1.71874 -0.65194,-0.65193 -1.85703,-0.65193 -1.12607,0 -1.93605,0.45438 -0.80998,0.43462 -1.50142,1.08656 l -0.63218,-0.88901 q 0.69144,-0.80998 1.97556,-1.46191 1.28411,-0.67169 2.74603,-0.67169 1.38289,0 2.33116,0.51364 0.94827,0.49389 1.40265,1.30387 0.45437,0.80998 0.45437,1.77801 0,1.9558 -1.87678,4.03014 -1.87678,2.05458 -4.70183,3.6943 l 6.12424,-0.45438 0.69144,-1.69898 1.00754,0.19755 -0.51365,3.12139 h -9.42342 z"
         style="-inkscape-font-specification:Merriweather"
         id="path11666" /><path
         d="m 766.38435,404.50669 q -2.52872,0 -3.79308,-1.73849 -1.2446,-1.75825 -1.2446,-4.52404 0,-1.93605 0.7112,-3.3782 0.7112,-1.46192 1.93605,-2.23239 1.22485,-0.77047 2.68676,-0.77047 2.56823,0 3.75357,1.65947 1.18533,1.63972 1.18533,4.50428 0,1.91629 -0.69144,3.39796 -0.67169,1.46192 -1.87679,2.2719 -1.18533,0.80998 -2.667,0.80998 z m 0.079,-1.00754 q 2.94359,0 2.94359,-5.27474 0,-2.56823 -0.6717,-3.95112 -0.65193,-1.38289 -2.21262,-1.38289 -1.52118,0 -2.25214,1.32362 -0.73096,1.30387 -0.73096,3.75356 0,2.50897 0.69145,4.03015 0.7112,1.50142 2.23238,1.50142 z"
         style="-inkscape-font-specification:Merriweather"
         id="path11668" /></g><ellipse
       style="fill:#003399;fill-opacity:1;stroke:none;stroke-width:0.264999;stroke-dasharray:none;stroke-opacity:1"
       id="ellipse11410"
       cx="-921.46289"
       cy="-655.05939"
       transform="scale(-1)"
       rx="15.193922"
       ry="15.187474" /><g
       aria-label="20"
       transform="scale(1.0002122,0.99978784)"
       id="text11414"
       style="font-size:19.7556px;font-family:'Cambria Math';-inkscape-font-specification:'Cambria Math';fill:#ffffff;stroke-width:0.185397"><path
         d="m 910.07585,660.52256 q 1.81752,-1.02729 3.3387,-2.35092 1.52118,-1.34338 2.41018,-2.76578 0.90876,-1.4224 0.90876,-2.68676 0,-1.08656 -0.65194,-1.71874 -0.65193,-0.65193 -1.85702,-0.65193 -1.12607,0 -1.93605,0.45437 -0.80998,0.43463 -1.50143,1.08656 l -0.63218,-0.889 q 0.69145,-0.80998 1.97556,-1.46191 1.28412,-0.67169 2.74603,-0.67169 1.38289,0 2.33116,0.51364 0.94827,0.49389 1.40265,1.30387 0.45438,0.80998 0.45438,1.778 0,1.95581 -1.87678,4.03015 -1.87678,2.05458 -4.70183,3.69429 l 6.12423,-0.45437 0.69145,-1.69899 1.00753,0.19756 -0.51364,3.12138 h -9.42342 z"
         style="-inkscape-font-specification:Merriweather"
         id="path11655" /><path
         d="m 927.2237,661.5301 q -2.52871,0 -3.79307,-1.7385 -1.2446,-1.75825 -1.2446,-4.52403 0,-1.93605 0.7112,-3.37821 0.7112,-1.46191 1.93605,-2.23238 1.22484,-0.77047 2.68676,-0.77047 2.56823,0 3.75356,1.65947 1.18534,1.63972 1.18534,4.50428 0,1.91629 -0.69145,3.39796 -0.67169,1.46192 -1.87678,2.2719 -1.18534,0.80998 -2.66701,0.80998 z m 0.079,-1.00754 q 2.94358,0 2.94358,-5.27475 0,-2.56822 -0.67169,-3.95112 -0.65193,-1.38289 -2.21263,-1.38289 -1.52118,0 -2.25214,1.32363 -0.73095,1.30387 -0.73095,3.75356 0,2.50896 0.69144,4.03014 0.71121,1.50143 2.23239,1.50143 z"
         style="-inkscape-font-specification:Merriweather"
         id="path11657" /></g></g></svg>
