<?xml version="1.0" encoding="UTF-8" standalone="no"?>
<!-- Created with Inkscape (http://www.inkscape.org/) -->

<svg
   width="802.16052"
   height="1165.8292"
   viewBox="0 0 212.23831 308.45899"
   version="1.1"
   id="svg5"
   inkscape:version="1.2.1 (9c6d41e410, 2022-07-14)"
   sodipodi:docname="cartas.svg"
   inkscape:export-filename="cartacinco.svg"
   inkscape:export-xdpi="96"
   inkscape:export-ydpi="96"
   xml:space="preserve"
   xmlns:inkscape="http://www.inkscape.org/namespaces/inkscape"
   xmlns:sodipodi="http://sodipodi.sourceforge.net/DTD/sodipodi-0.dtd"
   xmlns="http://www.w3.org/2000/svg"
   xmlns:svg="http://www.w3.org/2000/svg"><sodipodi:namedview
     id="namedview7"
     pagecolor="#ffffff"
     bordercolor="#000000"
     borderopacity="0.25"
     inkscape:showpageshadow="2"
     inkscape:pageopacity="0.0"
     inkscape:pagecheckerboard="0"
     inkscape:deskcolor="#d1d1d1"
     inkscape:document-units="mm"
     showgrid="false"
     inkscape:zoom="0.093205495"
     inkscape:cx="2070.6934"
     inkscape:cy="-697.38377"
     inkscape:window-width="1920"
     inkscape:window-height="1017"
     inkscape:window-x="-8"
     inkscape:window-y="-8"
     inkscape:window-maximized="1"
     inkscape:current-layer="layer1"
     showguides="false"
     inkscape:lockguides="false" /><defs
     id="defs2" /><g
     inkscape:groupmode="layer"
     id="layer2"
     inkscape:label="Camada 2"
     transform="translate(1218.168,-372.3457)"><g
       id="rect11248"><path
         style="color:#000000;fill:#ffffff;stroke-width:0.265;-inkscape-stroke:none"
         d="m -1206.9177,372.47772 h 189.7388 c 6.159,0 11.1175,5.61715 11.1175,12.5945 v 283.00556 c 0,6.97735 -4.9585,12.59449 -11.1175,12.59449 h -189.7388 c -6.1591,0 -11.1175,-5.61714 -11.1175,-12.59449 V 385.07222 c 0,-6.97735 4.9584,-12.5945 11.1175,-12.5945 z"
         id="path11916" /><path
         style="color:#000000;fill:#000000;-inkscape-stroke:none"
         d="m -1206.918,372.3457 c -6.2396,0 -11.25,5.68645 -11.25,12.72657 v 283.00585 c 0,7.04012 5.0104,12.72657 11.25,12.72657 h 189.7383 c 6.2397,0 11.25,-5.68645 11.25,-12.72657 V 385.07227 c 0,-7.04012 -5.0103,-12.72657 -11.25,-12.72657 z m 0,0.26367 h 189.7383 c 6.0785,0 10.9863,5.54833 10.9863,12.4629 v 283.00585 c 0,6.91457 -4.9078,12.46094 -10.9863,12.46094 h -189.7383 c -6.0785,0 -10.9843,-5.54637 -10.9843,-12.46094 V 385.07227 c 0,-6.91457 4.9058,-12.4629 10.9843,-12.4629 z"
         id="path11918" /></g><path
       style="color:#000000;fill:#003399;-inkscape-stroke:none"
       d="m -1180.0586,397.65234 c -1.4026,0 -4.5271,0.69248 -7.4023,2.81836 -2.8753,2.12588 -5.4375,5.72834 -5.4375,11.41407 v 232.9414 c 0,5.88137 3.8179,10.66602 8.6308,10.66602 h 140.3125 c 7.2095,0 12.7324,-7.14983 12.7324,-14.26758 V 408.32227 c 0,-5.8812 -3.8158,-10.66993 -8.6289,-10.66993 z m 0,0.79883 h 140.207 c 4.2779,0 7.8282,4.33386 7.8282,9.8711 v 232.90234 c 0,6.70172 -5.2568,13.46875 -11.9317,13.46875 h -140.3125 c -4.2781,0 -7.8301,-4.33009 -7.8301,-9.86719 v -232.9414 c 0,-5.44817 2.3973,-8.76478 5.1114,-10.77149 2.7141,-2.0067 5.8107,-2.66211 6.9277,-2.66211 z"
       id="path11250" /></g><g
     inkscape:label="Camada 1"
     inkscape:groupmode="layer"
     id="layer1"
     style="display:inline"
     transform="translate(1218.168,-372.3457)"><ellipse
       style="fill:#003399;fill-opacity:1;stroke:none;stroke-width:0.264999;stroke-dasharray:none;stroke-opacity:1"
       id="ellipse11352"
       cx="-1192.4851"
       cy="398.09055"
       rx="15.193922"
       ry="15.187474" /><g
       aria-label="0"
       transform="scale(1.0002122,0.99978784)"
       id="text11356"
       style="font-size:106.086px;font-family:'Cambria Math';-inkscape-font-specification:'Cambria Math';fill:#003399;stroke-width:0.264999"><path
         d="m -1112.3551,560.63171 q -13.579,0 -20.3685,-9.33556 -6.6834,-9.44166 -6.6834,-24.2937 0,-10.39642 3.8191,-18.1407 3.819,-7.85037 10.3964,-11.98772 6.5773,-4.13735 14.4277,-4.13735 13.7912,0 20.1563,8.91122 6.3652,8.80514 6.3652,24.18761 0,10.29034 -3.713,18.24679 -3.607,7.85036 -10.0782,12.19989 -6.3652,4.34952 -14.3216,4.34952 z m 0.4243,-5.41038 q 15.8068,0 15.8068,-28.32496 0,-13.79118 -3.6069,-21.2172 -3.5008,-7.42602 -11.8816,-7.42602 -8.1686,0 -12.0938,7.10776 -3.9252,7.00168 -3.9252,20.15634 0,13.47292 3.713,21.64154 3.8191,8.06254 11.9877,8.06254 z"
         style="-inkscape-font-specification:Merriweather;stroke-width:0.265"
         id="path11748" /></g><g
       aria-label="0"
       transform="scale(1.0002122,0.99978784)"
       id="text11360"
       style="font-size:25.4px;font-family:'Cambria Math';-inkscape-font-specification:'Cambria Math';fill:#ffffff;stroke-width:0.185397"><path
         d="m -1192.3591,406.30303 q -3.2512,0 -4.8768,-2.2352 -1.6002,-2.2606 -1.6002,-5.8166 0,-2.4892 0.9144,-4.3434 0.9144,-1.8796 2.4892,-2.8702 1.5748,-0.9906 3.4544,-0.9906 3.302,0 4.826,2.1336 1.524,2.1082 1.524,5.7912 0,2.4638 -0.889,4.3688 -0.8636,1.8796 -2.413,2.921 -1.524,1.0414 -3.429,1.0414 z m 0.1016,-1.2954 q 3.7846,0 3.7846,-6.7818 0,-3.302 -0.8636,-5.08 -0.8382,-1.778 -2.8448,-1.778 -1.9558,0 -2.8956,1.7018 -0.9398,1.6764 -0.9398,4.826 0,3.2258 0.889,5.1816 0.9144,1.9304 2.8702,1.9304 z"
         style="-inkscape-font-specification:Merriweather"
         id="path11743" /></g><ellipse
       style="fill:#003399;fill-opacity:1;stroke:none;stroke-width:0.264999;stroke-dasharray:none;stroke-opacity:1"
       id="ellipse11362"
       cx="1031.6116"
       cy="-655.05939"
       transform="scale(-1)"
       rx="15.193922"
       ry="15.187474" /><g
       aria-label="0"
       transform="scale(1.0002122,0.99978784)"
       id="text11366"
       style="font-size:25.4px;font-family:'Cambria Math';-inkscape-font-specification:'Cambria Math';fill:#ffffff;stroke-width:0.185397"><path
         d="m -1031.5197,663.32644 q -3.2512,0 -4.8768,-2.2352 -1.6002,-2.2606 -1.6002,-5.8166 0,-2.4892 0.9144,-4.3434 0.9144,-1.8796 2.4892,-2.8702 1.5748,-0.9906 3.4544,-0.9906 3.302,0 4.826,2.1336 1.524,2.1082 1.524,5.7912 0,2.4638 -0.889,4.3688 -0.8636,1.8796 -2.413,2.921 -1.524,1.0414 -3.429,1.0414 z m 0.1016,-1.2954 q 3.7846,0 3.7846,-6.7818 0,-3.302 -0.8636,-5.08 -0.8382,-1.778 -2.8448,-1.778 -1.9558,0 -2.8956,1.7018 -0.9398,1.6764 -0.9398,4.826 0,3.2258 0.889,5.1816 0.9144,1.9304 2.8702,1.9304 z"
         style="-inkscape-font-specification:Merriweather"
         id="path11736" /></g></g></svg>
